# Blender v2.91.0 OBJ File: ''
# www.blender.org
mtllib stairs.mtl
o Cube.001
v -6.249263 -0.999777 1.228805
v -6.167441 -0.999777 1.228805
v -6.167441 -0.959275 1.263942
v -6.249263 -0.959275 1.263942
v -6.167441 1.592559 1.000000
v -6.167441 1.633470 0.959089
v -6.208352 1.592559 0.959089
v -6.249263 -0.999777 -0.959089
v -6.249263 -0.958866 -1.000000
v -6.167441 -0.958866 -1.000000
v -6.167441 -0.999777 -0.959089
v -6.208352 1.592559 -0.959089
v -6.167441 1.633470 -0.959089
v -6.167441 1.592559 -1.000000
v -5.243718 -0.999777 1.228805
v -5.202807 -0.958866 1.222558
v -5.243718 -0.959275 1.263942
v -5.202807 1.592559 0.959089
v -5.243718 1.633470 0.959089
v -5.243718 1.592559 1.000000
v -5.243718 -0.999777 -0.959089
v -5.243718 -0.958866 -1.000000
v -5.202807 -0.958866 -0.959089
v -5.243718 1.592559 -1.000000
v -5.243718 1.633470 -0.959089
v -5.202807 1.592559 -0.959089
v -6.208352 1.312819 0.959089
v -6.249263 1.271908 0.959089
v -6.249263 1.231005 1.000822
v -6.167441 1.231005 1.000822
v -6.167441 1.312819 1.000000
v -6.208352 1.312819 -0.959089
v -6.167441 1.312819 -1.000000
v -6.167441 1.230997 -1.000000
v -6.249263 1.230997 -1.000000
v -6.249263 1.271908 -0.959089
v -5.243718 1.312819 -1.000000
v -5.202807 1.312819 -0.959089
v -5.202807 1.230997 -0.959089
v -5.243718 1.230997 -1.000000
v -5.202807 1.312819 0.959089
v -5.243718 1.312819 1.000000
v -5.243718 1.231005 1.000822
v -5.202807 1.230997 0.959903
v -6.249263 0.923897 -1.000000
v -6.167441 0.923897 -1.000000
v -6.167441 0.842075 -1.000000
v -6.249263 0.842075 -1.000000
v -5.202807 0.923897 -0.959089
v -5.202807 0.842075 -0.959089
v -5.243718 0.842075 -1.000000
v -5.243718 0.923897 -1.000000
v -5.243718 0.923888 1.006996
v -5.243718 0.842391 1.012898
v -5.202807 0.842075 0.971707
v -5.202807 0.923897 0.966076
v -6.249263 0.923888 1.006996
v -6.249263 0.842391 1.012898
v -6.167441 0.842391 1.012898
v -6.167441 0.923888 1.006996
v -6.249263 0.467220 -1.000000
v -6.249263 0.549042 -1.000000
v -6.167441 0.549042 -1.000000
v -6.167441 0.467220 -1.000000
v -5.243718 0.467220 -1.000000
v -5.243718 0.549042 -1.000000
v -5.202807 0.549042 -0.959089
v -5.202807 0.467220 -0.959089
v -5.202807 0.467220 1.019233
v -5.202807 0.549042 1.008376
v -5.243718 0.548725 1.049645
v -5.243718 0.467630 1.060500
v -6.249263 0.548726 1.049645
v -6.249263 0.467630 1.060500
v -6.167441 0.467630 1.060500
v -6.167441 0.548726 1.049645
v -6.979813 -0.959275 1.263942
v -7.061635 -0.959275 1.263942
v -7.061635 -0.999777 1.228805
v -6.979813 -0.999777 1.228805
v -7.061635 -0.999777 -0.959089
v -7.061635 -0.958866 -1.000000
v -6.979813 -0.958866 -1.000000
v -6.979813 -0.999777 -0.959089
v -6.979813 1.231005 1.000822
v -6.979813 1.271908 0.959089
v -7.020724 1.230997 0.959903
v -6.979813 1.271908 -0.959089
v -6.979813 1.230997 -1.000000
v -7.020724 1.230997 -0.959089
v -6.979813 0.923897 -1.000000
v -6.979813 0.842075 -1.000000
v -7.061635 0.842075 -1.000000
v -7.061635 0.882986 -0.959089
v -7.020724 0.923897 -0.959089
v -6.979813 0.923888 1.006996
v -7.020724 0.923897 0.966076
v -7.061635 0.882986 0.966907
v -7.061635 0.842391 1.012898
v -6.979813 0.842391 1.012898
v -7.061635 0.467220 -1.000000
v -7.061635 0.549042 -1.000000
v -6.979813 0.549042 -1.000000
v -6.979813 0.467220 -1.000000
v -6.979813 0.467630 1.060500
v -6.979813 0.548726 1.049645
v -7.061635 0.548726 1.049645
v -7.061635 0.467630 1.060500
v -7.916026 -0.999777 1.228805
v -7.834204 -0.999777 1.228805
v -7.834204 -0.959275 1.263942
v -7.916026 -0.959275 1.263942
v -7.916026 -0.999777 -0.959089
v -7.916026 -0.958866 -1.000000
v -7.834204 -0.958866 -1.000000
v -7.834204 -0.999777 -0.959089
v -7.834204 0.842075 -1.000000
v -7.875115 0.842075 -0.959089
v -7.834204 0.882986 -0.959089
v -7.834204 0.842391 1.012898
v -7.834204 0.882986 0.966907
v -7.875115 0.842075 0.971707
v -7.916026 0.467220 -1.000000
v -7.916026 0.508131 -0.959089
v -7.875115 0.549042 -0.959089
v -7.834204 0.549042 -1.000000
v -7.834204 0.467220 -1.000000
v -7.834204 0.548726 1.049645
v -7.875115 0.549042 1.008376
v -7.916026 0.508131 1.013814
v -7.916026 0.467630 1.060500
v -7.834204 0.467630 1.060500
v -8.702601 -0.999777 1.228805
v -8.702601 -0.959275 1.263942
v -8.743512 -0.958866 1.222558
v -8.702601 -0.999777 -0.959089
v -8.743512 -0.958866 -0.959089
v -8.702601 -0.958866 -1.000000
v -8.702601 0.467220 -1.000000
v -8.743512 0.467220 -0.959089
v -8.702601 0.508131 -0.959089
v -8.702601 0.467630 1.060500
v -8.702601 0.508131 1.013814
v -8.743512 0.467220 1.019233
vt 0.635171 0.505114
vt 0.864829 0.505114
vt 0.864829 0.744886
vt 0.635171 0.744886
vt 0.377966 0.504603
vt 0.481366 0.504877
vt 0.481366 0.745095
vt 0.377966 0.745368
vt 0.536302 1.000000
vt 0.574692 1.000000
vt 0.574692 1.000000
vt 0.536302 1.000000
vt 0.584919 0.005114
vt 0.619886 0.005114
vt 0.619886 0.244886
vt 0.584919 0.244886
vt 0.377937 0.760171
vt 0.481396 0.760171
vt 0.481396 0.989829
vt 0.377937 0.989829
vt 0.377966 0.260171
vt 0.481366 0.260171
vt 0.481366 0.489829
vt 0.377966 0.489829
vt 0.579805 0.005114
vt 0.579805 0.244886
vt 0.579805 0.244886
vt 0.579805 0.005114
vt 0.489446 0.260171
vt 0.526076 0.260171
vt 0.526076 0.489829
vt 0.489447 0.489829
vt 0.574691 0.250000
vt 0.536303 0.250000
vt 0.536303 0.250000
vt 0.574691 0.250000
vt 0.584919 0.260171
vt 0.619886 0.260171
vt 0.619886 0.489829
vt 0.584919 0.489829
vt 0.536303 0.505100
vt 0.574691 0.505108
vt 0.574691 0.744891
vt 0.536303 0.744899
vt 0.526076 0.250000
vt 0.489447 0.250000
vt 0.489447 0.250000
vt 0.526076 0.250000
vt 0.489407 0.760171
vt 0.526115 0.760171
vt 0.526115 0.989829
vt 0.489407 0.989829
vt 0.489407 1.000000
vt 0.526115 1.000000
vt 0.526115 1.000000
vt 0.489407 1.000000
vt 0.584918 0.760171
vt 0.619886 0.760171
vt 0.619886 0.989829
vt 0.584919 0.989829
vt 0.584919 0.505114
vt 0.619886 0.505114
vt 0.619886 0.744886
vt 0.584919 0.744886
vt 0.481366 0.250000
vt 0.377966 0.250000
vt 0.377966 0.250000
vt 0.481366 0.250000
vt 0.135171 0.504506
vt 0.364829 0.504506
vt 0.364829 0.745494
vt 0.135171 0.745494
vt 0.531189 0.005094
vt 0.531189 0.244906
vt 0.531189 0.244906
vt 0.531189 0.005094
vt 0.377937 1.000000
vt 0.481396 1.000000
vt 0.481396 1.000000
vt 0.377937 1.000000
vt 0.526076 0.250000
vt 0.489447 0.250000
vt 0.489447 0.250000
vt 0.526076 0.250000
vt 0.125000 0.504506
vt 0.125000 0.745494
vt 0.125000 0.745494
vt 0.125000 0.504506
vt 0.536302 0.760171
vt 0.574692 0.760171
vt 0.574692 0.989829
vt 0.536302 0.989829
vt 0.536303 0.260171
vt 0.574691 0.260171
vt 0.574691 0.489829
vt 0.536303 0.489829
vt 0.489446 0.505012
vt 0.526076 0.505059
vt 0.526076 0.744907
vt 0.489446 0.744954
vt 0.377937 1.000000
vt 0.481396 1.000000
vt 0.481396 1.000000
vt 0.377937 1.000000
vt 0.484333 0.004978
vt 0.484333 0.245022
vt 0.484333 0.245022
vt 0.484333 0.004978
vt 0.489447 0.005046
vt 0.526076 0.005093
vt 0.526076 0.244941
vt 0.489446 0.244988
vt 0.489407 1.000000
vt 0.526115 1.000000
vt 0.526115 1.000000
vt 0.489407 1.000000
vt 0.125000 0.504506
vt 0.125000 0.745494
vt 0.125000 0.745494
vt 0.125000 0.504506
vt 0.536303 0.005101
vt 0.574691 0.005109
vt 0.574691 0.244892
vt 0.536303 0.244900
vt 0.481366 0.250000
vt 0.377966 0.250000
vt 0.377966 0.250000
vt 0.481366 0.250000
vt 0.377966 0.004632
vt 0.481366 0.004905
vt 0.481366 0.245123
vt 0.377966 0.245397
vt 0.377937 1.000000
vt 0.481396 1.000000
vt 0.481396 1.000000
vt 0.377937 1.000000
vt 0.481366 0.250000
vt 0.377966 0.250000
vt 0.377966 0.250000
vt 0.481366 0.250000
vt 0.125000 0.745494
vt 0.125000 0.745494
vt 0.125000 0.749364
vt 0.125000 0.750000
vt 0.625000 0.989829
vt 0.619886 1.000000
vt 0.125000 0.504506
vt 0.125000 0.500000
vt 0.125000 0.500000
vt 0.125000 0.504506
vt 0.625000 0.244886
vt 0.619886 0.250000
vt 0.375000 0.744806
vt 0.364829 0.750000
vt 0.625000 0.744886
vt 0.619886 0.750000
vt 0.364829 0.500000
vt 0.375000 0.504506
vt 0.625000 0.489829
vt 0.619886 0.500000
vt 0.585019 1.000000
vt 0.579805 1.000000
vt 0.579805 1.000000
vt 0.574692 1.000000
vt 0.579805 1.000000
vt 0.125000 0.749364
vt 0.125000 0.750000
vt 0.125000 0.750000
vt 0.125000 0.745494
vt 0.125000 0.500000
vt 0.125000 0.500000
vt 0.125000 0.504506
vt 0.579805 1.000000
vt 0.574794 1.000000
vt 0.536236 1.000000
vt 0.531189 1.000000
vt 0.531189 1.000000
vt 0.531189 1.000000
vt 0.125000 0.749364
vt 0.125000 0.750000
vt 0.125000 0.500000
vt 0.125000 0.500000
vt 0.531189 1.000000
vt 0.526711 1.000000
vt 0.487269 1.000000
vt 0.484333 1.000000
vt 0.484333 1.000000
vt 0.125000 0.750000
vt 0.125000 0.744806
vt 0.125000 0.504506
vt 0.125000 0.500000
vt 0.481396 0.000000
vt 0.484333 0.004318
vt 0.584919 0.000000
vt 0.619886 0.000000
vt 0.625000 0.005114
vt 0.135171 0.500000
vt 0.625000 0.260171
vt 0.135171 0.750000
vt 0.625000 0.760171
vt 0.125000 0.750000
vt 0.536302 0.000000
vt 0.574692 0.000000
vt 0.489407 0.000000
vt 0.526115 0.000000
vt 0.125000 0.750000
vt 0.377937 0.000000
vt 0.484333 1.000000
vn 0.0000 1.0000 0.0000
vn 1.0000 0.0000 0.0000
vn 0.0000 0.0201 0.9998
vn -1.0000 0.0000 0.0000
vn 0.0000 0.1411 0.9900
vn 0.0000 0.0000 -1.0000
vn 0.0000 0.1242 0.9923
vn 0.0000 0.0000 1.0000
vn 0.0000 -1.0000 0.0000
vn 0.0000 -0.6553 0.7554
vn -0.5773 0.5774 0.5773
vn 0.0000 -0.7071 -0.7071
vn -0.5773 0.5774 -0.5773
vn 0.6104 -0.5191 0.5983
vn 0.5774 0.5773 0.5774
vn 0.5774 -0.5773 -0.5774
vn 0.5774 0.5773 -0.5774
vn -0.3673 0.3747 0.8513
vn -0.3665 0.3665 -0.8552
vn 0.7071 0.0000 -0.7071
vn 0.7071 0.0071 0.7071
vn 0.7076 0.0498 0.7049
vn 0.0000 0.0722 0.9974
vn 0.7071 0.0934 0.7009
vn 0.0000 0.1327 0.9912
vn -0.5736 0.5850 0.5734
vn -0.5774 0.5773 -0.5774
vn -0.3680 0.4228 0.8282
vn -0.5578 0.6222 0.5492
vn -0.3519 0.4628 0.8136
vn -0.6104 -0.5190 0.5983
vn -0.5774 -0.5773 -0.5773
vn -0.5774 0.5773 -0.5773
vn -0.5558 0.6280 0.5448
vn -0.7071 0.0000 0.7071
vn -0.7071 0.7071 0.0000
vn 0.0000 0.7071 -0.7071
vn 0.7071 -0.7071 0.0000
vn 0.7071 0.7071 0.0000
vn 0.7071 0.0998 0.7000
vn 0.0000 0.7071 0.7071
vn -0.7071 0.0000 -0.7071
vn 0.7071 0.0000 0.7071
vn 0.0000 0.0100 0.9999
vn 0.7071 0.0142 0.7070
vn 0.7071 0.0878 0.7016
vn -0.7071 0.0142 0.7070
vn 0.0000 0.7142 0.7000
vn -0.7071 0.0878 0.7016
vn 0.0000 0.7497 0.6618
vn -0.7071 -0.7071 0.0000
vn -0.7071 0.0998 0.7000
vn 0.0000 0.7554 0.6553
usemtl None
s off
f 25/1/1 13/2/1 6/3/1 19/4/1
f 23/5/2 68/6/2 69/7/2 16/8/2
f 57/9/3 29/10/3 85/11/3 96/12/3
f 27/13/4 7/14/4 12/15/4 32/16/4
f 17/17/5 72/18/5 75/19/5 3/20/5
f 10/21/6 64/22/6 65/23/6 22/24/6
f 28/25/1 36/26/1 88/27/1 86/28/1
f 63/29/6 47/30/6 51/31/6 66/32/6
f 35/33/6 45/34/6 91/35/6 89/36/6
f 33/37/6 14/38/6 24/39/6 37/40/6
f 49/41/2 39/42/2 44/43/2 56/44/2
f 48/45/6 62/46/6 103/47/6 92/48/6
f 71/49/7 54/50/7 59/51/7 76/52/7
f 73/53/7 58/54/7 100/55/7 106/56/7
f 42/57/8 20/58/8 5/59/8 31/60/8
f 38/61/2 26/62/2 18/63/2 41/64/2
f 61/65/6 9/66/6 83/67/6 104/68/6
f 11/69/9 21/70/9 15/71/9 2/72/9
f 98/73/1 94/74/1 119/75/1 121/76/1
f 78/77/5 108/78/5 132/79/5 111/80/5
f 93/81/6 102/82/6 126/83/6 117/84/6
f 81/85/9 79/86/9 110/87/9 116/88/9
f 53/89/3 43/90/3 30/91/3 60/92/3
f 46/93/6 34/94/6 40/95/6 52/96/6
f 67/97/2 50/98/2 55/99/2 70/100/2
f 4/101/5 74/102/5 105/103/5 77/104/5
f 130/105/1 124/106/1 141/107/1 143/108/1
f 129/109/4 122/110/4 118/111/4 125/112/4
f 107/113/7 99/114/7 120/115/7 128/116/7
f 113/117/9 109/118/9 133/119/9 136/120/9
f 97/121/4 87/122/4 90/123/4 95/124/4
f 101/125/6 82/126/6 115/127/6 127/128/6
f 135/129/4 144/130/4 140/131/4 137/132/4
f 112/133/5 131/134/5 142/135/5 134/136/5
f 123/137/6 114/138/6 138/139/6 139/140/6
f 1/141/10 2/142/10 3/143/10 4/144/10
f 5/59/11 6/145/11 7/146/11
f 8/147/12 9/148/12 10/149/12 11/150/12
f 12/15/13 13/151/13 14/152/13
f 15/71/14 16/153/14 17/154/14
f 18/63/15 19/155/15 20/156/15
f 21/70/16 22/157/16 23/158/16
f 24/39/17 25/159/17 26/160/17
f 27/161/18 28/162/18 29/163/18 30/164/18 31/165/18
f 32/16/19 33/37/19 34/94/19 35/33/19 36/26/19
f 37/40/20 38/61/20 39/42/20 40/95/20
f 41/64/21 42/57/21 43/90/21 44/43/21
f 45/34/6 46/93/6 47/30/6 48/45/6
f 49/41/20 50/98/20 51/31/20 52/96/20
f 53/89/22 54/50/22 55/99/22 56/44/22
f 57/9/23 58/54/23 59/51/23 60/92/23
f 61/65/6 62/46/6 63/29/6 64/22/6
f 65/23/20 66/32/20 67/97/20 68/6/20
f 69/7/24 70/100/24 71/49/24 72/18/24
f 73/53/25 74/102/25 75/19/25 76/52/25
f 77/166/10 78/167/10 79/168/10 80/169/10
f 81/85/12 82/170/12 83/171/12 84/172/12
f 85/11/26 86/173/26 87/174/26
f 88/27/27 89/36/27 90/123/27
f 91/35/19 92/48/19 93/81/19 94/74/19 95/124/19
f 96/175/28 97/176/28 98/177/28 99/178/28 100/55/28
f 101/125/6 102/82/6 103/47/6 104/68/6
f 105/103/25 106/56/25 107/113/25 108/78/25
f 109/118/10 110/87/10 111/179/10 112/180/10
f 113/117/12 114/181/12 115/182/12 116/88/12
f 117/84/13 118/111/13 119/75/13
f 120/115/29 121/183/29 122/184/29
f 123/137/19 124/106/19 125/112/19 126/83/19 127/128/19
f 128/185/30 129/186/30 130/187/30 131/134/30 132/79/30
f 133/119/31 134/188/31 135/189/31
f 136/120/32 137/190/32 138/191/32
f 139/140/33 140/131/33 141/107/33
f 142/192/34 143/108/34 144/193/34
f 11/69/9 2/72/9 1/141/9 8/147/9
f 31/194/35 5/195/35 7/14/35 27/13/35
f 6/196/36 13/151/36 12/15/36 7/14/36
f 64/22/6 10/21/6 9/66/6 61/65/6
f 21/70/12 11/69/12 10/197/12 22/157/12
f 13/198/37 25/159/37 24/39/37 14/38/37
f 68/6/20 23/5/20 22/24/20 65/23/20
f 15/71/38 21/70/38 23/5/38 16/8/38
f 25/1/39 19/4/39 18/63/39 26/62/39
f 72/18/40 17/17/40 16/8/40 69/7/40
f 2/72/10 15/71/10 17/154/10 3/199/10
f 19/200/41 6/145/41 5/59/41 20/58/41
f 60/92/3 30/91/3 29/10/3 57/9/3
f 14/38/42 33/37/42 32/16/42 12/15/42
f 26/62/20 38/61/20 37/40/20 24/39/20
f 20/58/43 42/57/43 41/64/43 18/63/43
f 42/57/44 31/60/44 30/91/44 43/90/44
f 38/61/2 41/64/2 44/43/2 39/42/2
f 33/37/6 37/40/6 40/95/6 34/94/6
f 27/13/36 32/16/36 36/26/36 28/25/36
f 34/94/6 46/93/6 45/34/6 35/33/6
f 39/42/20 49/41/20 52/96/20 40/95/20
f 43/90/45 53/89/45 56/44/45 44/43/45
f 76/52/7 59/51/7 58/54/7 73/53/7
f 80/169/10 1/141/10 4/144/10 77/201/10
f 46/93/6 52/96/6 51/31/6 47/30/6
f 49/41/2 56/44/2 55/99/2 50/98/2
f 53/89/23 60/92/23 59/51/23 54/50/23
f 47/30/6 63/29/6 62/46/6 48/45/6
f 50/98/20 67/97/20 66/32/20 51/31/20
f 54/50/46 71/49/46 70/100/46 55/99/46
f 3/20/5 75/19/5 74/102/5 4/101/5
f 71/49/25 76/52/25 75/19/25 72/18/25
f 67/97/2 70/100/2 69/7/2 68/6/2
f 63/29/6 66/32/6 65/23/6 64/22/6
f 73/53/25 106/56/25 105/103/25 74/102/25
f 84/172/9 80/169/9 79/86/9 81/85/9
f 104/68/6 83/67/6 82/126/6 101/125/6
f 96/202/47 85/203/47 87/122/47 97/121/47
f 86/28/36 88/27/36 90/123/36 87/122/36
f 89/36/42 91/35/42 95/124/42 90/123/42
f 106/56/7 100/55/7 99/114/7 107/113/7
f 97/121/36 95/124/36 94/74/36 98/73/36
f 92/48/6 103/47/6 102/82/6 93/81/6
f 77/104/5 105/103/5 108/78/5 78/77/5
f 93/81/37 117/84/37 119/75/37 94/74/37
f 48/45/6 92/48/6 91/35/6 45/34/6
f 88/27/37 36/26/37 35/33/37 89/36/37
f 8/147/12 84/172/12 83/171/12 9/148/12
f 103/47/6 62/46/6 61/65/6 104/68/6
f 57/9/23 96/12/23 100/55/23 58/54/23
f 28/162/48 86/173/48 85/11/48 29/10/48
f 116/88/9 110/87/9 109/118/9 113/117/9
f 127/128/6 115/127/6 114/138/6 123/137/6
f 128/204/49 120/205/49 122/110/49 129/109/49
f 121/76/36 119/75/36 118/111/36 122/110/36
f 117/84/42 126/83/42 125/112/42 118/111/42
f 111/80/5 132/79/5 131/134/5 112/133/5
f 129/109/36 125/112/36 124/106/36 130/105/36
f 120/115/50 99/114/50 98/177/50 121/183/50
f 78/167/10 111/206/10 110/87/10 79/86/10
f 115/182/12 82/170/12 81/85/12 116/88/12
f 101/125/6 127/128/6 126/83/6 102/82/6
f 132/79/25 108/78/25 107/113/25 128/116/25
f 136/120/51 133/119/51 135/189/51 137/190/51
f 139/140/42 138/139/42 137/132/42 140/131/42
f 134/207/52 142/192/52 144/130/52 135/129/52
f 143/108/36 141/107/36 140/131/36 144/130/36
f 113/117/12 136/120/12 138/191/12 114/181/12
f 141/107/37 124/106/37 123/137/37 139/140/37
f 142/135/53 131/134/53 130/187/53 143/208/53
f 112/180/10 134/188/10 133/119/10 109/118/10
f 8/147/9 1/141/9 80/169/9 84/172/9
