# Blender v2.91.0 OBJ File: 'lighthouselvl1.blend'
# www.blender.org
mtllib door.mtl
o Cube_Cube.002
v 0.099691 -0.762011 1.160172
v 0.050705 -0.762011 1.160172
v 0.050705 0.087085 1.160172
v 0.099691 0.066798 1.160172
v 0.099691 0.066798 1.146913
v 0.050705 0.087085 1.146913
v 0.050705 -0.762011 1.146913
v 0.099691 -0.762011 1.146913
v -0.063302 0.087085 1.146913
v -0.112289 0.065065 1.146913
v -0.063302 -0.762011 1.146913
v -0.112289 -0.762011 1.146913
v 0.213698 -0.008113 1.146913
v 0.213698 -0.762011 1.146913
v -0.215385 -0.007537 1.146913
v -0.215385 -0.762011 1.146913
v -0.264303 -0.789315 1.158379
v -0.264303 -0.759141 1.188553
v -0.294477 -0.759141 1.158379
v -0.264303 0.031639 1.188553
v -0.268593 0.064245 1.158379
v -0.294477 0.018562 1.158379
v -0.264303 -0.789315 0.920185
v -0.294477 -0.759141 0.920185
v -0.264303 -0.759141 0.890010
v -0.268593 0.064245 0.920185
v -0.264303 0.031639 0.890010
v -0.294477 0.018562 0.920185
v 0.264303 -0.789315 1.158379
v 0.294477 -0.759141 1.158379
v 0.264303 -0.759141 1.188553
v 0.268139 0.063461 1.158379
v 0.264303 0.031036 1.188553
v 0.294477 0.018562 1.158379
v 0.264303 -0.759141 0.890010
v 0.294477 -0.759141 0.920185
v 0.264303 -0.789315 0.920185
v 0.268139 0.063461 0.920185
v 0.294477 0.018562 0.920185
v 0.264303 0.031036 0.890010
v -0.137294 -0.759141 0.890010
v -0.076945 -0.759141 0.890010
v -0.076945 -0.789315 0.920185
v -0.137294 -0.789315 0.920185
v -0.137294 0.107735 0.890010
v -0.133004 0.145481 0.920185
v -0.076945 0.160990 0.920185
v -0.076945 0.130815 0.890010
v -0.137294 -0.759141 1.188553
v -0.137294 -0.789315 1.158379
v -0.076945 -0.789315 1.158379
v -0.076945 -0.759141 1.188553
v -0.137294 0.107735 1.188553
v -0.076945 0.130815 1.188553
v -0.076945 0.160990 1.158379
v -0.133004 0.145481 1.158379
v 0.123853 0.109552 0.890010
v 0.063504 0.130815 0.890010
v 0.063504 0.160990 0.920185
v 0.120017 0.146266 0.920185
v 0.123853 -0.789315 1.158379
v 0.123853 -0.759141 1.188553
v 0.063504 -0.759141 1.188553
v 0.063504 -0.789315 1.158379
v 0.063504 -0.759141 0.890010
v 0.123853 -0.759141 0.890010
v 0.123853 -0.789315 0.920185
v 0.063504 -0.789315 0.920185
v 0.063504 0.160990 1.158379
v 0.063504 0.130815 1.188553
v 0.123853 0.109552 1.188553
v 0.120017 0.146266 1.158379
v -0.063302 0.087085 1.160172
v -0.112289 0.065065 1.160172
v -0.063302 -0.762011 1.160172
v -0.112289 -0.762011 1.160172
v 0.213698 -0.008113 1.160172
v 0.213698 -0.762011 1.160172
v -0.215385 -0.007537 1.160172
v -0.215385 -0.762011 1.160172
v -0.215385 -0.384774 1.160172
v -0.063302 -0.337463 1.160172
v 0.055636 -0.377925 1.161331
v -0.215385 -0.384774 1.146913
v 0.213698 -0.385062 1.146913
v -0.264303 -0.363751 1.188553
v -0.294477 -0.370289 1.158379
v -0.264303 -0.363751 0.890010
v -0.294477 -0.370289 0.920185
v 0.294477 -0.370289 0.920185
v 0.264303 -0.364052 0.890010
v 0.264303 -0.364052 1.188553
v 0.294477 -0.370289 1.158379
v -0.076945 -0.314163 0.890010
v -0.137294 -0.325703 0.890010
v 0.123853 -0.324794 0.890010
v 0.063504 -0.314163 0.890010
v -0.112289 -0.348473 1.160172
v 0.213698 -0.385062 1.160172
v 0.099224 -0.386444 1.161340
v -0.215385 -0.352297 1.160172
v -0.063302 -0.300912 1.160172
v -0.215385 -0.352297 1.146913
v -0.264303 -0.329710 1.188553
v -0.294477 -0.336812 0.920185
v 0.264303 -0.330038 0.890010
v 0.294477 -0.336812 1.158379
v -0.137294 -0.288387 0.890010
v 0.063504 -0.275853 0.890010
v 0.098360 -0.273295 1.161405
v 0.051866 -0.276381 1.161201
v 0.213698 -0.352609 1.146913
v -0.294477 -0.336812 1.158379
v -0.264303 -0.329710 0.890010
v 0.294477 -0.336812 0.920185
v 0.264303 -0.330038 1.188553
v -0.076945 -0.275853 0.890010
v 0.123853 -0.287400 0.890010
v -0.112289 -0.312870 1.160172
v 0.213698 -0.352609 1.160172
v 0.068449 -0.342000 1.174411
v 0.072090 -0.332169 1.177634
v 0.084564 -0.344345 1.173984
v 0.079411 -0.333409 1.177875
v 0.082757 -0.314387 1.172830
v 0.080398 -0.322579 1.176867
v 0.073078 -0.321253 1.177397
v 0.067178 -0.312905 1.173568
vt 0.617062 0.920470
vt 0.615575 0.933279
vt 0.615575 0.933279
vt 0.617062 0.920470
vt 0.510078 0.342338
vt 0.617062 0.342338
vt 0.617062 0.401956
vt 0.510078 0.401956
vt 0.509464 0.762809
vt 0.615313 0.762808
vt 0.615313 0.762808
vt 0.509464 0.762808
vt 0.806458 0.525268
vt 0.864013 0.525268
vt 0.864013 0.724732
vt 0.806458 0.724732
vt 0.509987 0.525268
vt 0.615999 0.525268
vt 0.615999 0.724732
vt 0.509987 0.724732
vt 0.509382 0.262808
vt 0.615167 0.262808
vt 0.615575 0.316721
vt 0.509422 0.316721
vt 0.302573 0.750000
vt 0.362191 0.750000
vt 0.362191 0.750000
vt 0.302573 0.750000
vt 0.509987 0.025268
vt 0.615999 0.025268
vt 0.615999 0.224732
vt 0.509987 0.224732
vt 0.362191 0.750000
vt 0.302573 0.750000
vt 0.302573 0.525268
vt 0.362192 0.525268
vt 0.362191 0.724732
vt 0.302573 0.724732
vt 0.636180 0.525268
vt 0.699055 0.525268
vt 0.699055 0.724732
vt 0.636180 0.724732
vt 0.509505 0.427573
vt 0.615732 0.427573
vt 0.615313 0.487192
vt 0.509464 0.487192
vt 0.723044 0.525268
vt 0.782662 0.525268
vt 0.782662 0.724732
vt 0.723044 0.724732
vt 0.217338 0.525268
vt 0.276956 0.525268
vt 0.276956 0.724732
vt 0.217338 0.724732
vt 0.137808 0.724732
vt 0.137808 0.750000
vt 0.125000 0.724732
vt 0.615167 0.987191
vt 0.625000 0.989013
vt 0.615999 1.000000
vt 0.137808 0.525268
vt 0.125000 0.525268
vt 0.137808 0.500000
vt 0.625000 0.260987
vt 0.619900 0.250000
vt 0.615999 0.250000
vt 0.375000 0.724732
vt 0.625000 0.761180
vt 0.619720 0.750000
vt 0.615999 0.750000
vt 0.384001 0.500000
vt 0.375000 0.525268
vt 0.375000 0.525268
vt 0.629392 0.525268
vt 0.625000 0.525268
vt 0.619720 0.500000
vt 0.191721 0.500000
vt 0.204530 0.500000
vt 0.204530 0.525268
vt 0.204530 0.525268
vt 0.625000 0.318542
vt 0.625000 0.329530
vt 0.617062 0.329530
vt 0.191721 0.750000
vt 0.204530 0.724732
vt 0.204530 0.724732
vt 0.204530 0.750000
vt 0.625000 0.920470
vt 0.625000 0.931458
vt 0.611468 0.427573
vt 0.617062 0.414765
vt 0.625000 0.401956
vt 0.621127 0.414765
vt 0.289765 0.750000
vt 0.276956 0.750000
vt 0.276956 0.750000
vt 0.276956 0.500000
vt 0.289765 0.500000
vt 0.289765 0.525268
vt 0.276956 0.500000
vt 0.625000 0.848044
vt 0.617062 0.835235
vt 0.611468 0.835235
vt 0.621126 0.835235
vt 0.512105 0.000000
vt 0.619900 0.000000
vt 0.625000 0.025268
vt 0.625000 0.224732
vt 0.499416 0.262808
vt 0.383666 0.262808
vt 0.384001 0.224732
vt 0.500000 0.224732
vt 0.191721 0.525268
vt 0.625000 0.425945
vt 0.625000 0.488820
vt 0.500000 0.525268
vt 0.384001 0.525268
vt 0.383672 0.487192
vt 0.499493 0.487192
vt 0.384001 0.724732
vt 0.499493 0.762809
vt 0.383672 0.762809
vt 0.500000 0.724732
vt 0.217338 0.500000
vt 0.191721 0.724732
vt 0.625000 0.907662
vt 0.617062 0.907662
vt 0.617062 0.848044
vt 0.617062 0.907662
vt 0.617062 0.848044
vt 0.500000 0.342338
vt 0.382938 0.342338
vt 0.383269 0.316721
vt 0.499422 0.316721
vt 0.625000 0.342338
vt 0.217338 0.750000
vt 0.302573 0.500000
vt 0.362191 0.500000
vt 0.625000 0.824055
vt 0.615732 0.822427
vt 0.289765 0.750000
vt 0.276956 0.750000
vt 0.499498 0.427573
vt 0.383263 0.427573
vt 0.382938 0.401956
vt 0.500000 0.401956
vt 0.615313 0.762808
vt 0.509464 0.762808
vt 0.615575 0.933279
vt 0.617062 0.920470
vt 0.289765 0.750000
vt 0.276956 0.750000
vt 0.615167 0.987191
vt 0.615167 0.987191
vt 0.617062 0.835235
vt 0.611468 0.835235
vt 0.191721 0.750000
vt 0.137808 0.750000
vt 0.501951 0.000000
vt 0.384001 0.000000
vt 0.384001 0.000000
vt 0.501951 0.000000
vt 0.217338 0.750000
vt 0.615732 0.822427
vt 0.204530 0.750000
vt 0.502485 0.890373
vt 0.530486 0.890373
vt 0.530378 0.904593
vt 0.502475 0.904593
vt 0.502496 0.845407
vt 0.530417 0.845407
vt 0.530527 0.861132
vt 0.502507 0.861132
vt 0.502658 0.867890
vt 0.530878 0.867890
vt 0.530878 0.883615
vt 0.502658 0.883615
vt 0.499848 0.890373
vt 0.469209 0.890373
vt 0.469122 0.883615
vt 0.500000 0.883615
vt 0.500000 0.867890
vt 0.469122 0.867890
vt 0.469208 0.861132
vt 0.499867 0.861132
vt 0.617062 0.835235
vt 0.611468 0.835235
vt 0.384001 0.000000
vt 0.501951 0.000000
vt 0.217338 0.750000
vt 0.615732 0.822427
vt 0.617062 0.907662
vt 0.617062 0.848044
vt 0.204530 0.750000
vt 0.191721 0.750000
vt 0.137808 0.750000
vt 0.512105 0.000000
vt 0.512105 0.000000
vt 0.502507 0.861132
vt 0.499867 0.861132
vt 0.469315 0.845407
vt 0.499866 0.845407
vt 0.499846 0.904593
vt 0.469314 0.904593
vt 0.383672 0.762809
vt 0.499493 0.762808
vt 0.499493 0.762808
vt 0.383672 0.762809
vt 0.500000 0.025268
vt 0.384001 0.025268
vt 0.619900 0.000000
vt 0.619900 0.000000
vt 0.500000 0.867890
vt 0.502658 0.867890
vt 0.500198 0.866769
vt 0.502411 0.866769
vt 0.500111 0.862253
vt 0.502308 0.862253
vn 0.2520 -0.6108 0.7506
vn 0.0000 0.0000 -1.0000
vn -0.6354 0.0000 0.7722
vn -0.5140 0.8578 0.0000
vn 1.0000 0.0000 0.0000
vn 0.0000 0.9976 -0.0688
vn -1.0000 0.0000 0.0000
vn 0.0000 -1.0000 0.0000
vn 0.4880 0.8729 0.0000
vn 0.0000 1.0000 0.0000
vn -0.5774 -0.5773 0.5773
vn -0.7274 0.4121 0.5487
vn -0.5773 -0.5774 -0.5773
vn -0.7273 0.4121 -0.5487
vn 0.5774 -0.5773 0.5773
vn 0.7221 0.4236 0.5470
vn 0.5773 -0.5774 -0.5773
vn 0.7221 0.4236 -0.5470
vn 0.0000 -0.7071 -0.7071
vn -0.2174 0.6560 -0.7228
vn 0.0000 -0.7071 0.7071
vn -0.2174 0.6560 0.7228
vn 0.2039 0.6622 -0.7210
vn 0.2039 0.6622 0.7210
vn -0.7071 -0.7071 0.0000
vn -0.7071 0.0000 0.7071
vn -0.8700 0.4930 0.0000
vn -0.7071 0.0000 -0.7071
vn 0.3450 0.6172 -0.7071
vn 0.7071 0.0000 -0.7071
vn 0.7071 -0.7071 0.0000
vn 0.8625 0.5060 0.0000
vn 0.7071 0.0000 0.7071
vn -0.3634 0.6066 0.7071
vn -0.3634 0.6066 -0.7071
vn 0.0000 0.7071 0.7071
vn -0.2666 0.9638 0.0000
vn 0.0000 -0.6896 0.7242
vn 0.0000 0.7071 -0.7071
vn 0.3450 0.6172 0.7071
vn 0.2521 0.9677 0.0000
vn -0.4100 0.9121 0.0000
vn -0.5758 0.8176 0.0000
vn -0.2356 -0.6200 0.7484
vn 0.6482 0.0000 0.7615
vn 0.3298 -0.5103 0.7942
vn -0.3140 -0.5207 0.7939
vn 0.0000 0.0000 1.0000
vn 0.0066 0.0018 1.0000
vn -0.0046 0.0014 1.0000
vn -0.0004 -0.0031 1.0000
vn 0.3826 0.9239 0.0000
vn 0.5491 0.8357 0.0000
vn 0.6227 0.0176 0.7822
vn -0.0052 -0.0014 1.0000
vn 0.0051 -0.0015 1.0000
vn -0.0016 0.0032 1.0000
vn -0.0093 0.0007 1.0000
vn 0.0103 -0.0004 0.9999
vn -0.0504 -0.3138 0.9482
vn 0.0006 0.2931 0.9561
vn -0.6710 -0.0204 0.7412
vn -0.5960 0.0175 0.8028
vn -0.0424 -0.3266 0.9442
vn 0.7337 0.0507 0.6776
vn 0.1038 0.4452 0.8894
vn 0.0292 0.0545 0.9981
usemtl Material.007
s off
f 54/1/1 53/2/1 10/3/1 9/4/1
f 117/5/2 48/6/2 58/7/2 109/8/2
f 116/9/3 33/10/3 13/11/3 112/12/3
f 46/13/4 26/14/4 21/15/4 56/16/4
f 115/17/5 39/18/5 34/19/5 107/20/5
f 114/21/2 27/22/2 45/23/2 108/24/2
f 62/25/6 31/26/6 14/27/6 8/28/6
f 113/29/7 22/30/7 28/31/7 105/32/7
f 8/28/8 14/27/8 78/33/8 1/34/8
f 67/35/8 37/36/8 29/37/8 61/38/8
f 38/39/9 60/40/9 72/41/9 32/42/9
f 118/43/2 57/44/2 40/45/2 106/46/2
f 59/47/10 47/48/10 55/49/10 69/50/10
f 43/51/8 68/52/8 64/53/8 51/54/8
f 17/55/11 18/56/11 19/57/11
f 20/58/12 21/59/12 22/60/12
f 23/61/13 24/62/13 25/63/13
f 26/64/14 27/65/14 28/66/14
f 29/37/15 30/67/15 31/26/15
f 32/68/16 33/69/16 34/70/16
f 35/71/17 36/72/17 37/73/17
f 38/74/18 39/75/18 40/76/18
f 41/77/19 42/78/19 43/79/19 44/80/19
f 45/23/20 46/81/20 47/82/20 48/83/20
f 49/84/21 50/85/21 51/86/21 52/87/21
f 53/2/22 54/1/22 55/88/22 56/89/22
f 57/90/23 58/91/23 59/92/23 60/93/23
f 61/38/21 62/94/21 63/95/21 64/96/21
f 65/97/19 66/98/19 67/99/19 68/100/19
f 69/101/24 70/102/24 71/103/24 72/104/24
f 23/61/25 17/55/25 19/57/25 24/62/25
f 104/105/26 20/106/26 22/30/26 113/29/26
f 21/107/27 26/108/27 28/31/27 22/30/27
f 88/109/28 25/110/28 24/111/28 89/112/28
f 44/113/19 23/61/19 25/63/19 41/77/19
f 60/114/29 38/115/29 40/45/29 57/44/29
f 90/116/30 36/117/30 35/118/30 91/119/30
f 29/37/31 37/36/31 36/117/31 30/120/31
f 38/39/32 32/42/32 34/19/32 39/18/32
f 92/121/33 31/122/33 30/120/33 93/123/33
f 61/38/21 29/37/21 31/26/21 62/25/21
f 56/89/34 21/59/34 20/58/34 53/2/34
f 68/52/19 43/51/19 42/124/19 65/97/19
f 26/64/35 46/81/35 45/23/35 27/22/35
f 17/55/21 50/125/21 49/84/21 18/56/21
f 69/101/36 55/126/36 54/127/36 70/128/36
f 46/13/37 56/16/37 55/49/37 47/48/37
f 43/51/8 51/54/8 50/125/8 44/113/8
f 70/128/38 54/127/38 9/129/38 6/130/38
f 94/131/2 42/132/2 41/133/2 95/134/2
f 47/135/39 59/92/39 58/7/39 48/6/39
f 51/54/21 64/53/21 63/95/21 52/136/21
f 37/36/19 67/35/19 66/137/19 35/138/19
f 32/68/40 72/139/40 71/140/40 33/10/40
f 63/95/6 62/94/6 8/141/6 7/142/6
f 59/47/41 69/50/41 72/41/41 60/40/41
f 67/35/8 61/38/8 64/53/8 68/52/8
f 96/143/2 66/144/2 65/145/2 97/146/2
f 23/61/8 44/113/8 50/125/8 17/55/8
f 112/12/5 13/11/5 77/147/5 120/148/5
f 9/4/42 10/3/42 74/149/42 73/150/42
f 7/142/8 8/141/8 1/151/8 2/152/8
f 10/3/43 15/153/43 79/154/43 74/149/43
f 71/103/44 70/102/44 6/155/44 5/156/44
f 18/56/6 49/84/6 12/157/6 16/158/6
f 86/159/45 18/160/45 16/161/45 84/162/45
f 52/136/6 63/95/6 7/142/6 11/163/6
f 53/2/46 20/58/46 15/153/46 10/3/46
f 33/10/47 71/140/47 5/164/47 13/11/47
f 49/84/6 52/87/6 11/165/6 12/157/6
f 119/166/48 74/167/48 79/168/48 101/169/48
f 120/170/49 77/171/49 4/172/49 110/173/49
f 111/174/50 3/175/50 73/176/50 102/177/50
f 98/178/48 76/179/48 75/180/48 82/181/48
f 83/182/51 2/183/51 1/184/51 100/185/51
f 5/156/52 6/155/52 3/186/52 4/187/52
f 84/162/7 16/161/7 80/188/7 81/189/7
f 11/163/8 7/142/8 2/152/8 75/190/8
f 13/11/53 5/164/53 4/191/53 77/147/53
f 6/130/10 9/129/10 73/192/10 3/193/10
f 12/157/8 11/165/8 75/194/8 76/195/8
f 16/158/8 12/157/8 76/195/8 80/196/8
f 103/197/7 84/162/7 81/189/7 101/198/7
f 100/185/54 110/173/54 125/199/54 123/200/54
f 119/166/48 98/178/48 82/181/48 102/177/48
f 2/183/55 83/182/55 82/181/55 75/180/55
f 78/201/56 99/202/56 100/185/56 1/184/56
f 76/179/48 98/178/48 81/203/48 80/204/48
f 104/105/45 86/159/45 84/162/45 103/197/45
f 14/205/5 85/206/5 99/207/5 78/208/5
f 118/43/2 96/143/2 97/146/2 109/8/2
f 117/5/2 94/131/2 95/134/2 108/24/2
f 116/9/33 92/121/33 93/123/33 107/20/33
f 115/17/30 90/116/30 91/119/30 106/46/30
f 114/21/28 88/109/28 89/112/28 105/32/28
f 18/160/26 86/159/26 87/209/26 19/210/26
f 66/144/2 96/143/2 91/119/2 35/118/2
f 19/210/7 87/209/7 89/112/7 24/111/7
f 25/110/2 88/109/2 95/134/2 41/133/2
f 36/117/5 90/116/5 93/123/5 30/120/5
f 31/122/3 92/121/3 85/206/3 14/205/3
f 42/132/2 94/131/2 97/146/2 65/145/2
f 27/22/28 114/21/28 105/32/28 28/31/28
f 39/18/30 115/17/30 106/46/30 40/45/30
f 33/10/33 116/9/33 107/20/33 34/19/33
f 48/6/2 117/5/2 108/24/2 45/23/2
f 57/44/2 118/43/2 109/8/2 58/7/2
f 20/106/45 104/105/45 103/197/45 15/211/45
f 74/167/48 119/166/48 102/177/48 73/176/48
f 3/175/57 111/174/57 110/173/57 4/172/57
f 15/211/7 103/197/7 101/198/7 79/212/7
f 83/182/58 111/174/58 102/177/58 82/181/58
f 99/202/59 120/170/59 110/173/59 100/185/59
f 98/178/48 119/166/48 101/169/48 81/203/48
f 85/206/5 112/12/5 120/148/5 99/207/5
f 86/159/26 104/105/26 113/29/26 87/209/26
f 96/143/2 118/43/2 106/46/2 91/119/2
f 87/209/7 113/29/7 105/32/7 89/112/7
f 88/109/2 114/21/2 108/24/2 95/134/2
f 90/116/5 115/17/5 107/20/5 93/123/5
f 92/121/3 116/9/3 112/12/3 85/206/3
f 94/131/2 117/5/2 109/8/2 97/146/2
f 83/182/60 100/185/60 123/200/60 121/213/60
f 110/173/61 111/174/61 128/214/61 125/199/61
f 111/174/62 83/182/62 121/213/62 128/214/62
f 128/214/63 121/213/63 122/215/63 127/216/63
f 121/213/64 123/200/64 124/217/64 122/215/64
f 123/200/65 125/199/65 126/218/65 124/217/65
f 127/216/66 126/218/66 125/199/66 128/214/66
f 127/216/67 122/215/67 124/217/67 126/218/67
