# Blender v2.91.0 OBJ File: 'desk.blend'
# www.blender.org
mtllib picture.mtl
o Plane.021
v -0.692069 -0.049624 0.559095
v 0.727561 -0.067125 0.581713
v -0.670739 -0.013548 -0.515353
v 0.789498 -0.010797 -0.523864
v -0.711680 -0.007439 0.009147
v 0.012327 -0.013262 0.538873
v 0.760568 -0.008927 0.007386
v 0.040115 -0.006702 -0.522558
v 0.023051 -0.005597 0.010601
v -0.721859 -0.010137 0.273032
v 0.376683 0.004885 0.545869
v 0.778694 -0.009561 -0.257778
v -0.315833 -0.009796 -0.518471
v -0.686634 -0.010740 -0.251626
v -0.355238 -0.016902 0.538233
v 0.740617 -0.018392 0.283325
v 0.417457 -0.009129 -0.522999
v 0.034432 -0.004821 -0.254813
v 0.016356 -0.010490 0.274698
v -0.343560 -0.006593 0.010626
v 0.393084 -0.007498 0.009329
v 0.386089 -0.004290 0.276442
v -0.352748 -0.010655 0.274033
v -0.325687 -0.007560 -0.252408
v 0.408582 -0.007526 -0.256040
v -0.713098 -0.024605 0.410986
v 0.557200 -0.027254 0.565521
v 0.787160 -0.010633 -0.390369
v -0.489324 -0.012489 -0.515821
v -0.700864 -0.008543 -0.121563
v -0.172601 -0.014048 0.538491
v 0.753573 -0.010925 0.141683
v 0.226956 -0.007418 -0.523081
v 0.038974 -0.005918 -0.388339
v 0.019033 -0.008039 0.142709
v -0.526802 -0.007321 0.010099
v 0.207856 -0.006289 0.010068
v -0.718689 -0.007613 0.140613
v 0.197660 -0.007426 0.539960
v 0.768884 -0.008721 -0.125396
v -0.140781 -0.007527 -0.521032
v -0.673542 -0.013060 -0.382145
v -0.522967 -0.043039 0.540944
v 0.739043 -0.046081 0.450847
v 0.606760 -0.010665 -0.523009
v 0.028481 -0.004438 -0.121858
v 0.014388 -0.012077 0.406727
v -0.160647 -0.005791 0.010794
v 0.577548 -0.008585 0.008468
v 0.388191 -0.008455 0.142319
v 0.360331 0.009706 0.416486
v 0.201528 -0.008191 0.274991
v 0.565058 -0.010339 0.280912
v -0.349270 -0.008099 0.142227
v -0.354144 -0.014413 0.406082
v -0.536757 -0.011054 0.273595
v -0.168411 -0.010703 0.274454
v -0.317583 -0.009134 -0.384623
v -0.335421 -0.006420 -0.120857
v -0.503566 -0.009769 -0.251300
v -0.147437 -0.005543 -0.253768
v 0.415555 -0.008638 -0.389123
v 0.400199 -0.006913 -0.123326
v 0.220342 -0.005695 -0.255517
v 0.595766 -0.009131 -0.256676
v 0.585826 -0.008288 -0.124237
v 0.213719 -0.005293 -0.122544
v 0.225566 -0.006746 -0.388968
v -0.154408 -0.004934 -0.121284
v -0.516631 -0.007924 -0.120800
v -0.491850 -0.011891 -0.382359
v -0.170621 -0.012987 0.406372
v -0.532195 -0.023791 0.407355
v -0.533512 -0.008101 0.141535
v 0.558745 -0.008640 0.432702
v 0.199551 -0.005198 0.407730
v 0.203734 -0.008111 0.142497
v 0.571292 -0.009894 0.142324
v -0.165265 -0.008003 0.142642
v -0.142017 -0.006772 -0.386901
v 0.604367 -0.010336 -0.389377
vt 0.875000 0.875000
vt 1.000000 0.875000
vt 1.000000 1.000000
vt 0.875000 1.000000
vt 0.375000 0.875000
vt 0.500000 0.875000
vt 0.500000 1.000000
vt 0.375000 1.000000
vt 0.375000 0.375000
vt 0.500000 0.375000
vt 0.500000 0.500000
vt 0.375000 0.500000
vt 0.875000 0.375000
vt 1.000000 0.375000
vt 1.000000 0.500000
vt 0.875000 0.500000
vt 0.625000 0.375000
vt 0.750000 0.375000
vt 0.750000 0.500000
vt 0.625000 0.500000
vt 0.625000 0.125000
vt 0.750000 0.125000
vt 0.750000 0.250000
vt 0.625000 0.250000
vt 0.875000 0.125000
vt 1.000000 0.125000
vt 1.000000 0.250000
vt 0.875000 0.250000
vt 0.125000 0.375000
vt 0.250000 0.375000
vt 0.250000 0.500000
vt 0.125000 0.500000
vt 0.125000 0.125000
vt 0.250000 0.125000
vt 0.250000 0.250000
vt 0.125000 0.250000
vt 0.375000 0.125000
vt 0.500000 0.125000
vt 0.500000 0.250000
vt 0.375000 0.250000
vt 0.125000 0.875000
vt 0.250000 0.875000
vt 0.250000 1.000000
vt 0.125000 1.000000
vt 0.125000 0.625000
vt 0.250000 0.625000
vt 0.250000 0.750000
vt 0.125000 0.750000
vt 0.375000 0.625000
vt 0.500000 0.625000
vt 0.500000 0.750000
vt 0.375000 0.750000
vt 0.625000 0.875000
vt 0.750000 0.875000
vt 0.750000 1.000000
vt 0.625000 1.000000
vt 0.625000 0.625000
vt 0.750000 0.625000
vt 0.750000 0.750000
vt 0.625000 0.750000
vt 0.875000 0.625000
vt 1.000000 0.625000
vt 1.000000 0.750000
vt 0.875000 0.750000
vt 0.000000 0.625000
vt 0.000000 0.750000
vt 0.000000 0.500000
vt 0.000000 0.875000
vt 0.000000 1.000000
vt 0.250000 0.000000
vt 0.375000 0.000000
vt 0.500000 0.000000
vt 0.000000 0.125000
vt 0.000000 0.250000
vt 0.000000 0.000000
vt 0.125000 0.000000
vt 0.000000 0.375000
vt 0.750000 0.000000
vt 0.875000 0.000000
vt 1.000000 0.000000
vt 0.625000 0.000000
vn 0.0050 1.0000 -0.0053
vn 0.0015 1.0000 -0.0050
vn 0.0012 1.0000 -0.0018
vn 0.0048 1.0000 -0.0023
vn -0.0087 0.9999 -0.0078
vn -0.0001 1.0000 -0.0070
vn -0.0002 1.0000 -0.0056
vn -0.0089 0.9999 -0.0056
vn -0.0009 0.9998 0.0177
vn -0.0012 0.9998 0.0157
vn 0.0010 0.9999 0.0124
vn -0.0028 0.9999 0.0107
vn 0.0143 0.9998 0.0098
vn 0.0140 0.9997 0.0208
vn 0.0029 1.0000 0.0070
vn 0.0049 0.9999 0.0068
vn -0.0023 1.0000 0.0051
vn 0.0056 1.0000 -0.0022
vn 0.0064 0.9999 0.0074
vn 0.0045 0.9999 0.0103
vn -0.0480 0.9988 -0.0080
vn 0.0059 1.0000 -0.0025
vn 0.0096 0.9993 -0.0349
vn -0.0232 0.9995 -0.0198
vn 0.1271 0.9895 0.0681
vn 0.1622 0.9792 0.1215
vn 0.0726 0.9958 0.0563
vn 0.0591 0.9981 0.0139
vn 0.0004 0.9999 0.0134
vn -0.0014 0.9998 0.0158
vn -0.0042 1.0000 0.0060
vn -0.0022 1.0000 0.0009
vn -0.0338 0.9943 0.1011
vn -0.0356 0.9983 0.0456
vn -0.0079 0.9995 0.0314
vn -0.0056 0.9987 0.0511
vn -0.0058 0.9998 0.0148
vn -0.0167 0.9998 0.0075
vn -0.0086 0.9999 0.0095
vn -0.0019 0.9998 0.0192
vn -0.0106 0.9999 -0.0104
vn -0.0139 0.9998 -0.0091
vn -0.0145 0.9999 -0.0052
vn -0.0110 0.9999 -0.0046
vn -0.0056 0.9999 -0.0092
vn -0.0081 0.9999 -0.0045
vn -0.0117 0.9998 -0.0114
vn -0.0086 0.9998 -0.0152
vn -0.0053 1.0000 0.0000
vn 0.0009 1.0000 0.0023
vn 0.0003 1.0000 -0.0058
vn -0.0075 0.9999 -0.0078
vn 0.0070 0.9999 -0.0063
vn 0.0091 0.9999 -0.0057
vn 0.0090 0.9999 -0.0035
vn 0.0068 0.9999 -0.0048
vn 0.0064 1.0000 0.0021
vn 0.0078 0.9999 0.0004
vn 0.0089 0.9999 -0.0060
vn 0.0070 0.9999 -0.0054
vn 0.0048 1.0000 -0.0013
vn 0.0022 1.0000 -0.0023
vn 0.0021 1.0000 -0.0074
vn 0.0052 0.9999 -0.0069
vn -0.0031 0.9999 -0.0110
vn -0.0050 0.9998 -0.0167
vn -0.0004 1.0000 -0.0013
vn -0.0060 0.9999 -0.0111
vn -0.0061 1.0000 -0.0042
vn -0.0568 0.9972 0.0492
vn -0.0082 0.9999 0.0109
vn -0.0193 0.9998 0.0104
vn -0.0047 0.9919 0.1265
vn 0.0024 0.9982 0.0596
vn -0.0111 0.9876 0.1564
vn -0.0559 0.9911 0.1206
vn 0.0023 0.9999 0.0124
vn 0.0341 0.9976 0.0597
vn 0.1640 0.9789 0.1213
vn 0.1982 0.9678 0.1553
vn -0.0578 0.9981 0.0219
usemtl None
s 1
f 81/1/1 28/2/2 4/3/3 45/4/4
f 80/5/5 34/6/6 8/7/7 41/8/8
f 79/9/9 35/10/10 9/11/11 48/12/12
f 78/13/13 32/14/14 7/15/15 49/16/16
f 77/17/17 50/18/18 21/19/19 37/20/20
f 76/21/21 51/22/22 22/23/23 52/24/24
f 75/25/25 44/26/26 16/27/27 53/28/28
f 74/29/29 54/30/30 20/31/31 36/32/32
f 73/33/33 55/34/34 23/35/35 56/36/36
f 72/37/37 47/38/38 19/39/39 57/40/40
f 71/41/41 58/42/42 13/43/43 29/44/44
f 70/45/45 59/46/46 24/47/47 60/48/48
f 69/49/49 46/50/50 18/51/51 61/52/52
f 68/53/53 62/54/54 17/55/55 33/56/56
f 67/57/57 63/58/58 25/59/59 64/60/60
f 66/61/61 40/62/62 12/63/63 65/64/64
f 63/58/58 66/61/61 65/64/64 25/59/59
f 21/19/19 49/16/16 66/61/61 63/58/58
f 49/16/16 7/15/15 40/62/62 66/61/61
f 46/50/50 67/57/57 64/60/60 18/51/51
f 9/11/11 37/20/20 67/57/57 46/50/50
f 37/20/20 21/19/19 63/58/58 67/57/57
f 34/6/6 68/53/53 33/56/56 8/7/7
f 18/51/51 64/60/60 68/53/53 34/6/6
f 64/60/60 25/59/59 62/54/54 68/53/53
f 59/46/46 69/49/49 61/52/52 24/47/47
f 20/31/31 48/12/12 69/49/49 59/46/46
f 48/12/12 9/11/11 46/50/50 69/49/49
f 30/65/65 70/45/45 60/48/48 14/66/66
f 5/67/67 36/32/32 70/45/45 30/65/65
f 36/32/32 20/31/31 59/46/46 70/45/45
f 42/68/68 71/41/41 29/44/44 3/69/69
f 14/66/66 60/48/48 71/41/41 42/68/68
f 60/48/48 24/47/47 58/42/42 71/41/41
f 55/34/34 72/37/37 57/40/40 23/35/35
f 15/70/70 31/71/71 72/37/37 55/34/34
f 31/71/71 6/72/72 47/38/38 72/37/37
f 26/73/73 73/33/33 56/36/36 10/74/74
f 1/75/75 43/76/76 73/33/33 26/73/73
f 43/76/76 15/70/70 55/34/34 73/33/33
f 38/77/77 74/29/29 36/32/32 5/67/67
f 10/74/74 56/36/36 74/29/29 38/77/77
f 56/36/36 23/35/35 54/30/30 74/29/29
f 51/22/22 75/25/25 53/28/28 22/23/23
f 11/78/78 27/79/79 75/25/25 51/22/22
f 27/79/79 2/80/80 44/26/26 75/25/25
f 47/38/38 76/21/21 52/24/24 19/39/39
f 6/72/72 39/81/81 76/21/21 47/38/38
f 39/81/81 11/78/78 51/22/22 76/21/21
f 35/10/10 77/17/17 37/20/20 9/11/11
f 19/39/39 52/24/24 77/17/17 35/10/10
f 52/24/24 22/23/23 50/18/18 77/17/17
f 50/18/18 78/13/13 49/16/16 21/19/19
f 22/23/23 53/28/28 78/13/13 50/18/18
f 53/28/28 16/27/27 32/14/14 78/13/13
f 54/30/30 79/9/9 48/12/12 20/31/31
f 23/35/35 57/40/40 79/9/9 54/30/30
f 57/40/40 19/39/39 35/10/10 79/9/9
f 58/42/42 80/5/5 41/8/8 13/43/43
f 24/47/47 61/52/52 80/5/5 58/42/42
f 61/52/52 18/51/51 34/6/6 80/5/5
f 62/54/54 81/1/1 45/4/4 17/55/55
f 25/59/59 65/64/64 81/1/1 62/54/54
f 65/64/64 12/63/63 28/2/2 81/1/1
