# Blender v2.91.0 OBJ File: 'desk.blend'
# www.blender.org
mtllib pin.mtl
o Cylinder.025
v 0.000000 -0.046323 -0.011052
v 0.000000 0.046324 -0.026876
v 0.002156 -0.046323 -0.010840
v 0.005243 0.046324 -0.026359
v 0.004230 -0.046323 -0.010211
v 0.010285 0.046324 -0.024830
v 0.006140 -0.046323 -0.009190
v 0.014931 0.046324 -0.022346
v 0.007815 -0.046323 -0.007815
v 0.019004 0.046324 -0.019004
v 0.009190 -0.046323 -0.006140
v 0.022346 0.046324 -0.014931
v 0.010211 -0.046323 -0.004230
v 0.024830 0.046324 -0.010285
v 0.010840 -0.046323 -0.002156
v 0.026359 0.046324 -0.005243
v 0.011052 -0.046323 -0.000000
v 0.026876 0.046324 -0.000000
v 0.010840 -0.046323 0.002156
v 0.026359 0.046324 0.005243
v 0.010211 -0.046323 0.004230
v 0.024830 0.046324 0.010285
v 0.009190 -0.046323 0.006140
v 0.022346 0.046324 0.014931
v 0.007815 -0.046323 0.007815
v 0.019004 0.046324 0.019004
v 0.006140 -0.046323 0.009190
v 0.014931 0.046324 0.022346
v 0.004230 -0.046323 0.010211
v 0.010285 0.046324 0.024830
v 0.002156 -0.046323 0.010840
v 0.005243 0.046324 0.026359
v 0.000000 -0.046323 0.011052
v 0.000000 0.046324 0.026876
v -0.002156 -0.046323 0.010840
v -0.005243 0.046324 0.026359
v -0.004230 -0.046323 0.010211
v -0.010285 0.046324 0.024830
v -0.006140 -0.046323 0.009190
v -0.014931 0.046324 0.022346
v -0.007815 -0.046323 0.007815
v -0.019004 0.046324 0.019004
v -0.009190 -0.046323 0.006140
v -0.022346 0.046324 0.014931
v -0.010211 -0.046323 0.004230
v -0.024830 0.046324 0.010285
v -0.010840 -0.046323 0.002156
v -0.026359 0.046324 0.005243
v -0.011052 -0.046323 -0.000000
v -0.026876 0.046324 -0.000000
v -0.010840 -0.046323 -0.002156
v -0.026359 0.046324 -0.005243
v -0.010211 -0.046323 -0.004230
v -0.024830 0.046324 -0.010285
v -0.009190 -0.046323 -0.006140
v -0.022346 0.046324 -0.014931
v -0.007815 -0.046323 -0.007815
v -0.019004 0.046324 -0.019004
v -0.006140 -0.046323 -0.009190
v -0.014931 0.046324 -0.022346
v -0.004229 -0.046323 -0.010211
v -0.010285 0.046324 -0.024830
v -0.002156 -0.046323 -0.010840
v -0.005243 0.046324 -0.026359
v 0.000000 0.051742 -0.050646
v 0.009881 0.051742 -0.049672
v 0.019381 0.051742 -0.046790
v 0.028137 0.051742 -0.042110
v 0.035812 0.051742 -0.035812
v 0.042110 0.051742 -0.028137
v 0.046790 0.051742 -0.019381
v 0.049672 0.051742 -0.009880
v 0.050646 0.051742 0.000000
v 0.049672 0.051742 0.009880
v 0.046790 0.051742 0.019381
v 0.042110 0.051742 0.028137
v 0.035812 0.051742 0.035812
v 0.028137 0.051742 0.042110
v 0.019381 0.051742 0.046790
v 0.009881 0.051742 0.049672
v 0.000000 0.051742 0.050646
v -0.009880 0.051742 0.049672
v -0.019381 0.051742 0.046790
v -0.028137 0.051742 0.042110
v -0.035812 0.051742 0.035812
v -0.042110 0.051742 0.028137
v -0.046790 0.051742 0.019381
v -0.049672 0.051742 0.009880
v -0.050645 0.051742 -0.000000
v -0.049672 0.051742 -0.009880
v -0.046790 0.051742 -0.019381
v -0.042110 0.051742 -0.028137
v -0.035812 0.051742 -0.035812
v -0.028137 0.051742 -0.042110
v -0.019381 0.051742 -0.046790
v -0.009880 0.051742 -0.049672
v 0.000000 0.070482 -0.031252
v 0.006097 0.070482 -0.030652
v 0.011960 0.070482 -0.028874
v 0.017363 0.070482 -0.025985
v 0.022099 0.070482 -0.022099
v 0.025986 0.070482 -0.017363
v 0.028874 0.070482 -0.011960
v 0.030652 0.070482 -0.006097
v 0.031253 0.070482 0.000000
v 0.030652 0.070482 0.006097
v 0.028874 0.070482 0.011960
v 0.025986 0.070482 0.017363
v 0.022099 0.070482 0.022099
v 0.017363 0.070482 0.025986
v 0.011960 0.070482 0.028874
v 0.006097 0.070482 0.030652
v 0.000000 0.070482 0.031253
v -0.006097 0.070482 0.030652
v -0.011960 0.070482 0.028874
v -0.017363 0.070482 0.025986
v -0.022099 0.070482 0.022099
v -0.025985 0.070482 0.017363
v -0.028873 0.070482 0.011960
v -0.030652 0.070482 0.006097
v -0.031252 0.070482 -0.000000
v -0.030652 0.070482 -0.006097
v -0.028873 0.070482 -0.011960
v -0.025985 0.070482 -0.017363
v -0.022099 0.070482 -0.022099
v -0.017363 0.070482 -0.025986
v -0.011960 0.070482 -0.028874
v -0.006097 0.070482 -0.030652
vt 1.000000 0.500000
vt 1.000000 1.000000
vt 0.968750 1.000000
vt 0.968750 0.500000
vt 0.937500 1.000000
vt 0.937500 0.500000
vt 0.906250 1.000000
vt 0.906250 0.500000
vt 0.875000 1.000000
vt 0.875000 0.500000
vt 0.843750 1.000000
vt 0.843750 0.500000
vt 0.812500 1.000000
vt 0.812500 0.500000
vt 0.781250 1.000000
vt 0.781250 0.500000
vt 0.750000 1.000000
vt 0.750000 0.500000
vt 0.718750 1.000000
vt 0.718750 0.500000
vt 0.687500 1.000000
vt 0.687500 0.500000
vt 0.656250 1.000000
vt 0.656250 0.500000
vt 0.625000 1.000000
vt 0.625000 0.500000
vt 0.593750 1.000000
vt 0.593750 0.500000
vt 0.562500 1.000000
vt 0.562500 0.500000
vt 0.531250 1.000000
vt 0.531250 0.500000
vt 0.500000 1.000000
vt 0.500000 0.500000
vt 0.468750 1.000000
vt 0.468750 0.500000
vt 0.437500 1.000000
vt 0.437500 0.500000
vt 0.406250 1.000000
vt 0.406250 0.500000
vt 0.375000 1.000000
vt 0.375000 0.500000
vt 0.343750 1.000000
vt 0.343750 0.500000
vt 0.312500 1.000000
vt 0.312500 0.500000
vt 0.281250 1.000000
vt 0.281250 0.500000
vt 0.250000 1.000000
vt 0.250000 0.500000
vt 0.218750 1.000000
vt 0.218750 0.500000
vt 0.187500 1.000000
vt 0.187500 0.500000
vt 0.156250 1.000000
vt 0.156250 0.500000
vt 0.125000 1.000000
vt 0.125000 0.500000
vt 0.093750 1.000000
vt 0.093750 0.500000
vt 0.062500 1.000000
vt 0.062500 0.500000
vt 0.843750 1.000000
vt 0.812500 1.000000
vt 0.031250 1.000000
vt 0.031250 0.500000
vt 0.000000 1.000000
vt 0.000000 0.500000
vt 0.750000 0.490000
vt 0.796822 0.485388
vt 0.841844 0.471731
vt 0.883337 0.449553
vt 0.919706 0.419706
vt 0.949553 0.383337
vt 0.971731 0.341844
vt 0.985388 0.296822
vt 0.990000 0.250000
vt 0.985388 0.203178
vt 0.971731 0.158156
vt 0.949553 0.116663
vt 0.919706 0.080294
vt 0.883337 0.050447
vt 0.841844 0.028269
vt 0.796822 0.014612
vt 0.750000 0.010000
vt 0.703178 0.014612
vt 0.658156 0.028269
vt 0.616663 0.050447
vt 0.580294 0.080294
vt 0.550447 0.116663
vt 0.528269 0.158156
vt 0.514611 0.203179
vt 0.510000 0.250000
vt 0.514612 0.296822
vt 0.528269 0.341844
vt 0.550447 0.383337
vt 0.580295 0.419706
vt 0.616663 0.449553
vt 0.658156 0.471731
vt 0.703179 0.485389
vt 0.093750 1.000000
vt 0.125000 1.000000
vt 0.125000 1.000000
vt 0.093750 1.000000
vt 0.562500 1.000000
vt 0.531250 1.000000
vt 0.281250 1.000000
vt 0.250000 1.000000
vt 0.968750 1.000000
vt 0.937500 1.000000
vt 0.687500 1.000000
vt 0.656250 1.000000
vt 0.406250 1.000000
vt 0.375000 1.000000
vt 0.781250 1.000000
vt 0.500000 1.000000
vt 0.218750 1.000000
vt 0.906250 1.000000
vt 0.625000 1.000000
vt 0.343750 1.000000
vt 0.062500 1.000000
vt 0.750000 1.000000
vt 0.468750 1.000000
vt 0.187500 1.000000
vt 0.875000 1.000000
vt 0.593750 1.000000
vt 0.312500 1.000000
vt 0.031250 1.000000
vt 0.718750 1.000000
vt 0.437500 1.000000
vt 0.156250 1.000000
vt 1.000000 1.000000
vt 0.000000 1.000000
vt 0.296822 0.485388
vt 0.250000 0.490000
vt 0.203179 0.485389
vt 0.158156 0.471731
vt 0.116663 0.449553
vt 0.080295 0.419706
vt 0.050447 0.383337
vt 0.028269 0.341844
vt 0.014612 0.296822
vt 0.010000 0.250000
vt 0.014611 0.203179
vt 0.028269 0.158156
vt 0.050447 0.116663
vt 0.080294 0.080294
vt 0.116663 0.050447
vt 0.158156 0.028269
vt 0.203178 0.014612
vt 0.250000 0.010000
vt 0.296822 0.014612
vt 0.341844 0.028269
vt 0.383337 0.050447
vt 0.419706 0.080294
vt 0.449553 0.116663
vt 0.471731 0.158156
vt 0.485388 0.203178
vt 0.490000 0.250000
vt 0.485388 0.296822
vt 0.471731 0.341844
vt 0.449553 0.383337
vt 0.419706 0.419706
vt 0.383337 0.449553
vt 0.341844 0.471731
vt 0.531250 1.000000
vt 0.500000 1.000000
vt 0.937500 1.000000
vt 0.906250 1.000000
vt 0.062500 1.000000
vt 0.468750 1.000000
vt 0.875000 1.000000
vt 0.031250 1.000000
vt 0.437500 1.000000
vt 0.843750 1.000000
vt 0.000000 1.000000
vt 0.406250 1.000000
vt 0.812500 1.000000
vt 0.375000 1.000000
vt 0.781250 1.000000
vt 0.343750 1.000000
vt 0.750000 1.000000
vt 0.312500 1.000000
vt 0.718750 1.000000
vt 0.281250 1.000000
vt 0.687500 1.000000
vt 0.250000 1.000000
vt 0.656250 1.000000
vt 0.218750 1.000000
vt 0.625000 1.000000
vt 0.187500 1.000000
vt 0.593750 1.000000
vt 0.156250 1.000000
vt 0.562500 1.000000
vt 1.000000 1.000000
vt 0.968750 1.000000
vn 0.0000 -0.7449 -0.6672
vn 0.0000 -0.7052 -0.7090
vn 0.1383 -0.7052 -0.6954
vn 0.1302 -0.7449 -0.6544
vn 0.2713 -0.7052 -0.6550
vn 0.2553 -0.7449 -0.6164
vn 0.3939 -0.7052 -0.5895
vn 0.3707 -0.7449 -0.5547
vn 0.5014 -0.7052 -0.5014
vn 0.4718 -0.7449 -0.4718
vn 0.5895 -0.7052 -0.3939
vn 0.5547 -0.7449 -0.3707
vn 0.6550 -0.7052 -0.2713
vn 0.6164 -0.7449 -0.2553
vn 0.6954 -0.7052 -0.1383
vn 0.6544 -0.7449 -0.1302
vn 0.7090 -0.7052 0.0000
vn 0.6672 -0.7449 0.0000
vn 0.6954 -0.7052 0.1383
vn 0.6544 -0.7449 0.1302
vn 0.6550 -0.7052 0.2713
vn 0.6164 -0.7449 0.2553
vn 0.5895 -0.7052 0.3939
vn 0.5547 -0.7449 0.3707
vn 0.5014 -0.7052 0.5014
vn 0.4718 -0.7449 0.4718
vn 0.3939 -0.7052 0.5895
vn 0.3707 -0.7449 0.5547
vn 0.2713 -0.7052 0.6550
vn 0.2553 -0.7449 0.6164
vn 0.1383 -0.7052 0.6954
vn 0.1302 -0.7449 0.6544
vn 0.0000 -0.7052 0.7090
vn 0.0000 -0.7449 0.6672
vn -0.1383 -0.7052 0.6954
vn -0.1302 -0.7449 0.6544
vn -0.2713 -0.7052 0.6550
vn -0.2553 -0.7449 0.6164
vn -0.3939 -0.7052 0.5895
vn -0.3707 -0.7449 0.5547
vn -0.5014 -0.7052 0.5014
vn -0.4718 -0.7449 0.4718
vn -0.5895 -0.7052 0.3939
vn -0.5547 -0.7449 0.3707
vn -0.6550 -0.7052 0.2713
vn -0.6164 -0.7449 0.2553
vn -0.6954 -0.7052 0.1383
vn -0.6544 -0.7449 0.1302
vn -0.7090 -0.7052 0.0000
vn -0.6672 -0.7449 0.0000
vn -0.6954 -0.7052 -0.1383
vn -0.6544 -0.7449 -0.1302
vn -0.6550 -0.7052 -0.2713
vn -0.6164 -0.7449 -0.2553
vn -0.5895 -0.7052 -0.3939
vn -0.5547 -0.7449 -0.3707
vn -0.5014 -0.7052 -0.5014
vn -0.4718 -0.7449 -0.4718
vn -0.3939 -0.7052 -0.5895
vn -0.3707 -0.7449 -0.5547
vn -0.2713 -0.7052 -0.6550
vn -0.2553 -0.7449 -0.6164
vn 0.8039 -0.2555 -0.5371
vn 0.8932 -0.2555 -0.3700
vn -0.1383 -0.7052 -0.6954
vn -0.1302 -0.7449 -0.6544
vn -0.5371 -0.2555 -0.8039
vn -0.6836 -0.2555 -0.6836
vn -0.2790 0.9189 -0.2790
vn -0.2192 0.9189 -0.3280
vn 0.3700 -0.2555 0.8932
vn 0.1886 -0.2555 0.9482
vn -0.9482 -0.2555 0.1886
vn -0.9668 -0.2555 0.0000
vn 0.1886 -0.2555 -0.9482
vn 0.3700 -0.2555 -0.8932
vn 0.8932 -0.2555 0.3700
vn 0.8039 -0.2555 0.5371
vn -0.5371 -0.2555 0.8039
vn -0.6836 -0.2555 0.6836
vn 0.9482 -0.2555 -0.1886
vn 0.0000 -0.2555 0.9668
vn -0.9482 -0.2555 -0.1886
vn 0.5371 -0.2555 -0.8039
vn 0.6836 -0.2555 0.6836
vn -0.8039 -0.2555 0.5371
vn -0.3700 -0.2555 -0.8932
vn 0.9668 -0.2555 0.0000
vn -0.1886 -0.2555 0.9482
vn -0.8932 -0.2555 -0.3700
vn 0.6836 -0.2555 -0.6836
vn 0.5371 -0.2555 0.8039
vn -0.8932 -0.2555 0.3700
vn -0.1886 -0.2555 -0.9482
vn 0.9482 -0.2555 0.1886
vn -0.3700 -0.2555 0.8932
vn -0.8039 -0.2555 -0.5371
vn 0.0000 -0.2555 -0.9668
vn 0.0770 0.9189 -0.3869
vn 0.0000 0.9189 -0.3945
vn -0.0770 0.9189 -0.3869
vn -0.1510 0.9189 -0.3645
vn -0.3280 0.9189 -0.2192
vn -0.3645 0.9189 -0.1510
vn -0.3869 0.9189 -0.0770
vn -0.3945 0.9189 0.0000
vn -0.3869 0.9189 0.0770
vn -0.3645 0.9189 0.1510
vn -0.3280 0.9189 0.2192
vn -0.2790 0.9189 0.2790
vn -0.2192 0.9189 0.3280
vn -0.1510 0.9189 0.3645
vn -0.0770 0.9189 0.3869
vn 0.0000 0.9189 0.3945
vn 0.0770 0.9189 0.3869
vn 0.1510 0.9189 0.3645
vn 0.2192 0.9189 0.3280
vn 0.2790 0.9189 0.2790
vn 0.3280 0.9189 0.2192
vn 0.3645 0.9189 0.1510
vn 0.3869 0.9189 0.0770
vn 0.3945 0.9189 0.0000
vn 0.3869 0.9189 -0.0770
vn 0.3645 0.9189 -0.1510
vn 0.3280 0.9189 -0.2192
vn 0.2790 0.9189 -0.2790
vn 0.2192 0.9189 -0.3280
vn 0.1510 0.9189 -0.3645
usemtl pinwhite
s 1
f 1/1/1 2/2/2 4/3/3 3/4/4
f 3/4/4 4/3/3 6/5/5 5/6/6
f 5/6/6 6/5/5 8/7/7 7/8/8
f 7/8/8 8/7/7 10/9/9 9/10/10
f 9/10/10 10/9/9 12/11/11 11/12/12
f 11/12/12 12/11/11 14/13/13 13/14/14
f 13/14/14 14/13/13 16/15/15 15/16/16
f 15/16/16 16/15/15 18/17/17 17/18/18
f 17/18/18 18/17/17 20/19/19 19/20/20
f 19/20/20 20/19/19 22/21/21 21/22/22
f 21/22/22 22/21/21 24/23/23 23/24/24
f 23/24/24 24/23/23 26/25/25 25/26/26
f 25/26/26 26/25/25 28/27/27 27/28/28
f 27/28/28 28/27/27 30/29/29 29/30/30
f 29/30/30 30/29/29 32/31/31 31/32/32
f 31/32/32 32/31/31 34/33/33 33/34/34
f 33/34/34 34/33/33 36/35/35 35/36/36
f 35/36/36 36/35/35 38/37/37 37/38/38
f 37/38/38 38/37/37 40/39/39 39/40/40
f 39/40/40 40/39/39 42/41/41 41/42/42
f 41/42/42 42/41/41 44/43/43 43/44/44
f 43/44/44 44/43/43 46/45/45 45/46/46
f 45/46/46 46/45/45 48/47/47 47/48/48
f 47/48/48 48/47/47 50/49/49 49/50/50
f 49/50/50 50/49/49 52/51/51 51/52/52
f 51/52/52 52/51/51 54/53/53 53/54/54
f 53/54/54 54/53/53 56/55/55 55/56/56
f 55/56/56 56/55/55 58/57/57 57/58/58
f 57/58/58 58/57/57 60/59/59 59/60/60
f 59/60/60 60/59/59 62/61/61 61/62/62
f 14/13/13 12/11/11 70/63/63 71/64/64
f 61/62/62 62/61/61 64/65/65 63/66/66
f 63/66/66 64/65/65 2/67/2 1/68/1
f 1/69/1 3/70/4 5/71/6 7/72/8 9/73/10 11/74/12 13/75/14 15/76/16 17/77/18 19/78/20 21/79/22 23/80/24 25/81/26 27/82/28 29/83/30 31/84/32 33/85/34 35/86/36 37/87/38 39/88/40 41/89/42 43/90/44 45/91/46 47/92/48 49/93/50 51/94/52 53/95/54 55/96/56 57/97/58 59/98/60 61/99/62 63/100/66
f 94/101/67 93/102/68 125/103/69 126/104/70
f 32/31/31 30/29/29 79/105/71 80/106/72
f 50/49/49 48/47/47 88/107/73 89/108/74
f 6/5/5 4/3/3 66/109/75 67/110/76
f 24/23/23 22/21/21 75/111/77 76/112/78
f 42/41/41 40/39/39 84/113/79 85/114/80
f 60/59/59 58/57/57 93/102/68 94/101/67
f 16/15/15 14/13/13 71/64/64 72/115/81
f 34/33/33 32/31/31 80/106/72 81/116/82
f 52/51/51 50/49/49 89/108/74 90/117/83
f 8/7/7 6/5/5 67/110/76 68/118/84
f 26/25/25 24/23/23 76/112/78 77/119/85
f 44/43/43 42/41/41 85/114/80 86/120/86
f 62/61/61 60/59/59 94/101/67 95/121/87
f 18/17/17 16/15/15 72/115/81 73/122/88
f 36/35/35 34/33/33 81/116/82 82/123/89
f 54/53/53 52/51/51 90/117/83 91/124/90
f 10/9/9 8/7/7 68/118/84 69/125/91
f 28/27/27 26/25/25 77/119/85 78/126/92
f 46/45/45 44/43/43 86/120/86 87/127/93
f 64/65/65 62/61/61 95/121/87 96/128/94
f 20/19/19 18/17/17 73/122/88 74/129/95
f 38/37/37 36/35/35 82/123/89 83/130/96
f 56/55/55 54/53/53 91/124/90 92/131/97
f 12/11/11 10/9/9 69/125/91 70/63/63
f 30/29/29 28/27/27 78/126/92 79/105/71
f 48/47/47 46/45/45 87/127/93 88/107/73
f 4/3/3 2/2/2 65/132/98 66/109/75
f 2/67/2 64/65/65 96/128/94 65/133/98
f 22/21/21 20/19/19 74/129/95 75/111/77
f 40/39/39 38/37/37 83/130/96 84/113/79
f 58/57/57 56/55/55 92/131/97 93/102/68
f 98/134/99 97/135/100 128/136/101 127/137/102 126/138/70 125/139/69 124/140/103 123/141/104 122/142/105 121/143/106 120/144/107 119/145/108 118/146/109 117/147/110 116/148/111 115/149/112 114/150/113 113/151/114 112/152/115 111/153/116 110/154/117 109/155/118 108/156/119 107/157/120 106/158/121 105/159/122 104/160/123 103/161/124 102/162/125 101/163/126 100/164/127 99/165/128
f 81/116/82 80/106/72 112/166/115 113/167/114
f 68/118/84 67/110/76 99/168/128 100/169/127
f 95/121/87 94/101/67 126/104/70 127/170/102
f 82/123/89 81/116/82 113/167/114 114/171/113
f 69/125/91 68/118/84 100/169/127 101/172/126
f 96/128/94 95/121/87 127/170/102 128/173/101
f 83/130/96 82/123/89 114/171/113 115/174/112
f 70/63/63 69/125/91 101/172/126 102/175/125
f 65/133/98 96/128/94 128/173/101 97/176/100
f 84/113/79 83/130/96 115/174/112 116/177/111
f 71/64/64 70/63/63 102/175/125 103/178/124
f 85/114/80 84/113/79 116/177/111 117/179/110
f 72/115/81 71/64/64 103/178/124 104/180/123
f 86/120/86 85/114/80 117/179/110 118/181/109
f 73/122/88 72/115/81 104/180/123 105/182/122
f 87/127/93 86/120/86 118/181/109 119/183/108
f 74/129/95 73/122/88 105/182/122 106/184/121
f 88/107/73 87/127/93 119/183/108 120/185/107
f 75/111/77 74/129/95 106/184/121 107/186/120
f 89/108/74 88/107/73 120/185/107 121/187/106
f 76/112/78 75/111/77 107/186/120 108/188/119
f 90/117/83 89/108/74 121/187/106 122/189/105
f 77/119/85 76/112/78 108/188/119 109/190/118
f 91/124/90 90/117/83 122/189/105 123/191/104
f 78/126/92 77/119/85 109/190/118 110/192/117
f 92/131/97 91/124/90 123/191/104 124/193/103
f 79/105/71 78/126/92 110/192/117 111/194/116
f 66/109/75 65/132/98 97/195/100 98/196/99
f 93/102/68 92/131/97 124/193/103 125/103/69
f 80/106/72 79/105/71 111/194/116 112/166/115
f 67/110/76 66/109/75 98/196/99 99/168/128
