# Blender v3.6.4 OBJ File: ''
# www.blender.org
mtllib boatToken.mtl
o Cube
v 1.009510 1.000000 1.911386
v 0.495205 -0.352292 1.527949
v -1.009510 1.000000 1.911386
v -0.495205 -0.352292 1.527949
v 1.020178 1.000000 -2.253332
v 0.504894 -0.352292 -2.254652
v -1.020178 1.000000 -2.253332
v -0.504894 -0.352292 -2.254652
v -0.020181 -0.352292 -2.255893
v -0.005833 1.000000 2.919386
v -0.020181 1.000000 -2.255893
v -0.009513 -0.352292 1.908825
v 0.000000 1.000000 -2.255945
v 0.000000 -0.352292 1.908801
v 0.000000 -0.352292 -2.255945
v 0.000000 1.000000 2.910960
v 0.020181 -0.352292 -2.255893
v 0.005833 1.000000 2.919386
v 0.020181 1.000000 -2.255893
v 0.009513 -0.352292 1.908825
v -0.808775 2.277256 -1.697144
v -0.808775 0.985100 -1.697144
v -0.808775 2.277256 -0.143397
v -0.808775 0.985100 -0.143397
v -0.888062 2.300388 -1.782235
v -0.888062 2.300388 0.268348
v -0.883429 2.461745 -1.782235
v -0.883429 2.461745 0.268348
v 0.000000 2.277256 -1.697144
v 0.000000 0.985100 -1.697144
v 0.000000 0.985100 -0.143397
v 0.000000 2.277256 -0.143397
v 0.000000 2.300388 -1.782235
v 0.000000 2.300388 0.268348
v 0.000000 2.461745 -1.782235
v 0.000000 2.461745 0.268348
v 0.808775 2.277256 -1.697144
v 0.808775 0.985100 -1.697144
v 0.808775 2.277256 -0.143397
v 0.808775 0.985100 -0.143397
v 0.883429 2.461745 0.268348
v 0.883429 2.461745 -1.782235
v 0.888062 2.300388 0.268348
v 0.888062 2.300388 -1.782235
vt 0.625000 0.625000
vt 0.875000 0.625000
vt 0.875000 0.750000
vt 0.625000 0.750000
vt 0.375000 0.750000
vt 0.625000 1.000000
vt 0.375000 1.000000
vt 0.375000 0.750000
vt 0.375000 1.000000
vt 0.625000 1.000000
vt 0.625000 0.750000
vt 0.125000 0.625000
vt 0.375000 0.625000
vt 0.125000 0.750000
vt 0.125000 0.625000
vt 0.125000 0.750000
vt 0.375000 0.625000
vt 0.375000 0.623811
vt 0.625000 0.624268
vt 0.125000 0.622477
vt 0.375000 0.000000
vt 0.625000 0.000000
vt 0.625000 0.125000
vt 0.375000 0.125000
vt 0.875000 0.622477
vt 0.375000 0.125000
vt 0.375000 0.127523
vt 0.625000 0.127523
vt 0.625000 0.125000
vt 0.625000 0.625000
vt 0.375000 0.000000
vt 0.625000 0.000000
vt 0.875000 0.750000
vt 0.875000 0.625000
vt 0.375000 0.000000
vt 0.625000 0.000000
vt 0.625000 0.250000
vt 0.375000 0.250000
vt 0.753985 0.500000
vt 0.753985 0.750000
vt 0.875000 0.750000
vt 0.875000 0.500000
vt 0.625000 0.250000
vt 0.625000 0.250000
vt 0.625000 0.000000
vt 0.625000 0.000000
vt 0.375000 0.875000
vt 0.625000 0.875000
vt 0.625000 1.000000
vt 0.375000 1.000000
vt 0.625000 0.250000
vt 0.625000 0.000000
vt 0.375000 0.250000
vt 0.375000 0.375000
vt 0.625000 0.375000
vt 0.625000 0.371015
vt 0.625000 0.371015
vt 0.625000 0.250000
vt 0.625000 0.000000
vt 0.625000 1.000000
vt 0.625000 1.000000
vt 0.625000 0.878985
vt 0.625000 0.878985
vt 0.875000 0.500000
vt 0.875000 0.750000
vt 0.625000 0.250000
vt 0.625000 1.000000
vt 0.625000 0.000000
vt 0.375000 0.000000
vt 0.625000 1.000000
vt 0.625000 1.000000
vt 0.375000 1.000000
vt 0.125000 0.500000
vt 0.250000 0.500000
vt 0.250000 0.750000
vt 0.125000 0.750000
vt 0.125000 0.500000
vt 0.125000 0.750000
vn 0.0000 1.0000 -0.0000
vn -0.9345 -0.3561 0.0024
vn 0.9345 -0.3561 0.0024
vn 0.0000 -1.0000 0.0000
vn -0.6086 -0.4513 0.6526
vn 0.4040 -0.5465 0.7336
vn -0.0026 0.0000 -1.0000
vn 0.0026 0.0000 -1.0000
vn -0.4040 -0.5465 0.7336
vn 0.6086 -0.4513 0.6526
vn -1.0000 0.0000 0.0000
vn 0.9996 0.0287 0.0000
vn 0.0000 0.0000 1.0000
vn 0.2801 -0.9600 0.0000
vn 0.0000 0.0000 -1.0000
vn 0.0000 -0.9650 -0.2623
vn -0.2801 -0.9600 0.0000
vn 0.0000 -0.9984 0.0561
vn -0.9996 0.0287 0.0000
vn 1.0000 0.0000 0.0000
usemtl Material
s off
f 10/1/1 11/2/1 7/3/1 3/4/1
f 4/5/2 3/4/2 7/6/2 8/7/2
f 2/8/3 6/9/3 5/10/3 1/11/3
f 9/12/4 12/13/4 4/5/4 8/14/4
f 12/13/5 10/1/5 3/4/5 4/5/5
f 17/15/4 6/16/4 2/8/4 20/17/4
f 14/18/6 16/19/6 10/1/6 12/13/6
f 15/20/4 14/18/4 12/13/4 9/12/4
f 8/21/7 7/22/7 11/23/7 9/24/7
f 16/19/1 13/25/1 11/2/1 10/1/1
f 17/26/8 15/27/8 13/28/8 19/29/8
f 14/18/9 20/17/9 18/30/9 16/19/9
f 9/24/7 11/23/7 13/28/7 15/27/7
f 20/17/10 2/8/10 1/11/10 18/30/10
f 15/20/4 17/15/4 20/17/4 14/18/4
f 6/31/8 17/26/8 19/29/8 5/32/8
f 18/30/1 1/11/1 5/33/1 19/34/1
f 16/19/1 18/30/1 19/34/1 13/25/1
f 24/35/11 23/36/11 21/37/11 22/38/11
f 35/39/1 36/40/1 41/41/1 42/42/1
f 44/43/12 42/44/12 41/45/12 43/46/12
f 31/47/13 32/48/13 23/49/13 24/50/13
f 37/51/14 44/43/14 43/46/14 39/52/14
f 38/53/15 30/54/15 29/55/15 37/51/15
f 33/56/15 35/57/15 42/44/15 44/43/15
f 29/55/16 21/37/16 25/58/16 33/56/16
f 21/37/17 23/36/17 26/59/17 25/58/17
f 43/60/13 41/61/13 36/62/13 34/63/13
f 35/39/1 27/64/1 28/65/1 36/40/1
f 33/56/15 25/58/15 27/66/15 35/57/15
f 39/67/18 43/60/18 34/63/18 32/48/18
f 25/58/19 26/59/19 28/68/19 27/66/19
f 40/69/20 38/53/20 37/51/20 39/52/20
f 26/70/13 34/63/13 36/62/13 28/71/13
f 31/47/13 40/72/13 39/67/13 32/48/13
f 23/49/18 32/48/18 34/63/18 26/70/18
f 29/55/16 33/56/16 44/43/16 37/51/16
f 22/73/4 30/74/4 31/75/4 24/76/4
f 22/38/15 21/37/15 29/55/15 30/54/15
f 38/77/4 40/78/4 31/75/4 30/74/4
