# Blender v2.91.0 OBJ File: ''
# www.blender.org
mtllib rock2.mtl
o Cube
v 0.096784 0.258859 -0.218246
v 0.121208 0.021895 -0.212525
v 0.104522 0.244575 0.081517
v 0.097162 0.015128 0.061429
v -0.187759 0.234785 -0.236710
v -0.181476 0.044152 -0.219673
v -0.192877 0.218239 0.093584
v -0.176430 0.020109 0.102757
v 0.048060 0.442902 -0.144942
v 0.068627 0.415728 0.001964
v -0.104865 0.415385 -0.124116
v -0.091780 0.409152 0.039604
v -0.198442 0.017174 -0.056381
v -0.025823 0.020261 -0.233830
v 0.115976 0.117060 -0.238684
v -0.186143 0.102418 0.120657
v 0.110627 0.111025 0.090398
v -0.185706 0.126943 -0.240396
v -0.036346 0.254172 0.112988
v 0.127686 0.250396 -0.061297
v -0.029967 0.018431 0.089993
v -0.235381 0.209994 -0.074741
v -0.041032 0.253934 -0.272370
v 0.123014 0.000073 -0.071945
v 0.001154 0.428660 0.028958
v 0.061701 0.433808 -0.079797
v -0.102087 0.413324 -0.054629
v -0.036703 0.440813 -0.142605
v 0.075434 0.367696 -0.180759
v 0.095383 0.350904 0.033635
v -0.140994 0.336636 -0.181823
v -0.140495 0.334523 0.066916
v -0.168072 0.320747 -0.063806
v -0.011064 0.361543 0.072623
v -0.038765 0.357474 -0.212421
v -0.017418 0.449979 -0.069180
v -0.027692 0.122823 -0.287757
v 0.140300 0.106639 -0.070069
v -0.029435 -0.017783 -0.064330
v -0.233310 0.106330 -0.058474
v -0.024866 0.127060 0.132959
v 0.106129 0.358636 -0.073773
vt 0.939670 0.539363
vt 0.946658 0.631291
vt 1.000000 0.598765
vt 1.000000 0.535340
vt 0.599385 0.572133
vt 0.500485 0.563423
vt 0.491855 0.719312
vt 0.589152 0.748306
vt 0.086920 0.592029
vt 0.185040 0.588090
vt 0.183728 0.429270
vt 0.085589 0.411088
vt 0.186002 0.208672
vt 0.187705 0.008948
vt 0.025940 0.039278
vt 0.003204 0.225002
vt 0.769625 0.549448
vt 0.868879 0.541890
vt 0.868947 0.410844
vt 0.770122 0.393646
vt 0.452505 0.196783
vt 0.552188 0.198917
vt 0.556073 0.035124
vt 0.455855 0.009654
vt 0.780534 0.093064
vt 0.771379 0.000064
vt 0.687688 0.004251
vt 0.704699 0.090744
vt 0.625085 0.191674
vt 0.630952 0.319513
vt 0.687688 0.277512
vt 0.687688 0.183759
vt 0.429089 0.550414
vt 0.428535 0.425728
vt 0.371732 0.449549
vt 0.368609 0.537121
vt 0.254478 0.586642
vt 0.259469 0.706353
vt 0.312371 0.667955
vt 0.312371 0.584283
vt 0.253315 0.464452
vt 0.307861 0.499725
vt 0.191374 0.744862
vt 0.423436 0.671285
vt 0.369707 0.624981
vt 0.500742 0.402470
vt 0.627575 0.063071
vt 0.683801 0.090601
vt 0.559569 0.361601
vt 0.789338 0.184475
vt 0.724709 0.176814
vt 0.852784 0.186957
vt 0.856018 0.093796
vt 0.856018 0.000000
vt 0.368609 0.193795
vt 0.371000 0.000000
vt 0.379718 0.388063
vt 0.462020 0.383605
vt 0.684630 0.552516
vt 0.686241 0.388063
vt 0.695686 0.713419
vt 0.779967 0.697897
vt 0.878484 0.666788
vt 0.184108 0.408868
vt 0.000000 0.408868
vt 0.368482 0.387801
vt 0.368609 0.192813
vt 0.349076 0.000000
vt 0.000000 0.594112
vt 0.001257 0.408868
vt 0.009395 0.777843
vt 0.093880 0.770219
vt 0.684630 0.574936
vt 0.672470 0.758348
vt 0.684630 0.388063
vt 0.600128 0.389236
vt 0.940057 0.441815
vt 0.996188 0.470358
vn 0.8740 0.4524 -0.1774
vn -0.1314 0.1790 0.9750
vn -0.9620 -0.0349 -0.2710
vn 0.0745 -0.9805 0.1816
vn 0.9829 0.0664 0.1716
vn 0.3401 0.1621 -0.9263
vn -0.2757 0.9467 0.1668
vn -0.3680 0.6269 -0.6867
vn 0.3664 0.4915 0.7901
vn -0.8136 0.5704 0.1127
vn -0.8471 0.5280 -0.0592
vn -0.8501 0.5037 -0.1536
vn -0.8671 0.4688 0.1687
vn -0.0796 0.4735 0.8772
vn -0.1549 0.3326 0.9303
vn 0.2831 0.3477 0.8938
vn 0.0865 0.5619 -0.8227
vn 0.2694 0.4215 -0.8659
vn -0.2967 0.5190 -0.8016
vn 0.2350 0.9559 0.1761
vn 0.0840 0.9963 -0.0205
vn -0.3742 0.9273 0.0117
vn 0.2147 -0.3600 -0.9079
vn -0.2105 -0.3712 -0.9044
vn -0.2651 0.0597 -0.9624
vn 0.9651 -0.1761 0.1940
vn 0.9933 -0.0703 -0.0913
vn 0.9793 0.1253 -0.1589
vn -0.1059 -0.9858 0.1304
vn -0.1879 -0.9617 -0.1995
vn 0.0724 -0.9794 -0.1887
vn -0.9468 -0.2432 -0.2106
vn -0.9452 -0.2635 0.1925
vn -0.9683 0.0105 0.2498
vn 0.0240 -0.3031 0.9527
vn 0.2222 -0.3414 0.9133
vn 0.2675 0.1238 0.9556
vn 0.8793 0.4691 0.0818
vn 0.9736 0.1791 0.1416
vn 0.9546 0.2127 -0.2087
usemtl Material
s off
f 42/1/1 29/2/1 9/3/1 26/4/1
f 41/5/2 19/6/2 7/7/2 16/8/2
f 40/9/3 22/10/3 5/11/3 18/12/3
f 39/13/4 24/14/4 4/15/4 21/16/4
f 38/17/5 20/18/5 3/19/5 17/20/5
f 37/21/6 23/22/6 1/23/6 15/24/6
f 36/25/7 27/26/7 12/27/7 25/28/7
f 35/29/8 31/30/8 11/31/8 28/32/8
f 34/33/9 30/34/9 10/35/9 25/36/9
f 33/37/10 32/38/10 12/39/10 27/40/10
f 31/41/11 33/37/11 27/40/11 11/42/11
f 5/11/12 22/10/12 33/37/12 31/41/12
f 22/10/13 7/43/13 32/38/13 33/37/13
f 32/44/14 34/33/14 25/36/14 12/45/14
f 7/7/15 19/6/15 34/33/15 32/44/15
f 19/6/16 3/46/16 30/34/16 34/33/16
f 29/47/17 35/29/17 28/32/17 9/48/17
f 1/23/18 23/22/18 35/29/18 29/47/18
f 23/22/19 5/49/19 31/30/19 35/29/19
f 26/50/20 36/25/20 25/28/20 10/51/20
f 9/52/21 28/53/21 36/25/21 26/50/21
f 28/53/22 11/54/22 27/26/22 36/25/22
f 14/55/23 37/21/23 15/24/23 2/56/23
f 6/57/24 18/58/24 37/21/24 14/55/24
f 18/58/25 5/49/25 23/22/25 37/21/25
f 24/59/26 38/17/26 17/20/26 4/60/26
f 2/61/27 15/62/27 38/17/27 24/59/27
f 15/62/28 1/63/28 20/18/28 38/17/28
f 13/64/29 39/13/29 21/16/29 8/65/29
f 6/66/30 14/67/30 39/13/30 13/64/30
f 14/67/31 2/68/31 24/14/31 39/13/31
f 13/69/32 40/9/32 18/12/32 6/70/32
f 8/71/33 16/72/33 40/9/33 13/69/33
f 16/72/34 7/43/34 22/10/34 40/9/34
f 21/73/35 41/5/35 16/8/35 8/74/35
f 4/75/36 17/76/36 41/5/36 21/73/36
f 17/76/37 3/46/37 19/6/37 41/5/37
f 30/77/38 42/1/38 26/4/38 10/78/38
f 3/19/39 20/18/39 42/1/39 30/77/39
f 20/18/40 1/63/40 29/2/40 42/1/40
